# vtk DataFile Version 3.0
Magnetic Field Scan Structured
ASCII
DATASET STRUCTURED_POINTS
DIMENSIONS 12 15 4
ORIGIN 90 110 0
SPACING 10 10 10
POINT_DATA 720
SCALARS B_Magnitude double 1
LOOKUP_TABLE default
5893.708457
8140.737476
9777.088598
9539.294017
7979.131907
6681.011522
6570.361627
7654.987571
9014.403459
9237.329959
7817.508296
5761.546442
8463.907065
14060.607225
19090.962062
17868.724964
12427.551272
8963.891358
8922.658363
12043.694028
16778.792226
17818.869207
13399.467530
8348.067688
10506.173805
22598.458173
24281.177498
27236.552053
16507.995840
9592.072640
9558.733071
16275.542050
27799.611566
25935.765892
22257.062985
10668.096085
10023.225427
17547.825956
23089.489401
20699.488669
12800.322579
6064.320410
6235.460397
13350.983303
22560.104933
24221.237411
18439.641980
10260.337267
8900.417919
15856.118966
17199.219527
20881.919950
10245.043715
2766.672062
2911.346835
10046.977174
18453.035054
15776.042872
14247.652226
8683.546168
7759.658350
14787.243717
17631.547889
22501.793434
11919.462820
5413.025619
5357.458754
11652.748581
18232.003767
16499.905401
12939.827884
7399.982972
6236.403573
11744.091116
16307.352672
23377.117925
13008.537979
7626.791803
7648.808858
13318.428602
19472.391602
15723.436959
10455.431033
5990.936482
4700.728611
8542.057325
14548.613333
22199.570183
12944.588067
8443.889280
8627.394995
13840.342969
18812.769037
12925.105725
7437.036606
4534.127155
3499.123879
6063.429890
11783.541649
19054.326483
11668.498562
8153.253788
8381.272103
12914.744653
16810.977012
10762.492829
5356.879618
3345.389918
2790.761022
4822.780705
8822.705077
14361.910145
9377.729490
7022.659636
7304.941434
10637.501336
13087.395499
8116.237098
4009.160523
2521.180482
2306.844958
4187.392316
6257.900003
9482.021218
7556.994328
5802.675694
6049.949181
8455.577565
8164.411329
5715.626762
3274.946470
2003.469482
1820.987333
3309.186556
6371.340320
6310.929011
5371.214169
4652.441811
5316.072183
6126.420071
4692.169461
4045.148308
2397.875605
1525.425113
1335.700593
2219.390771
4242.675327
7334.220500
4310.481870
3573.230239
3369.875369
4412.770200
3506.613107
2450.167502
1620.724060
1108.331081
925.680333
1379.536169
2069.068493
3079.573236
3040.525080
2091.722894
1754.381126
1884.503675
1736.587978
1369.194768
1026.378671
766.559054
621.067647
840.031048
1087.903784
1280.999320
1272.824195
1099.070989
955.718324
909.430989
869.771631
760.289777
620.444231
489.266572
4321.414671
5544.478167
6341.210796
6210.808591
5411.230909
4772.543775
4771.619025
5369.754483
6072.021261
6197.618437
5472.157397
4332.079615
5693.327723
7975.067565
9666.815630
9294.578831
7454.983797
6050.600981
5991.608691
7294.075207
9006.698844
9423.135287
7900.870198
5743.107241
6630.026331
9901.886883
12525.982720
11650.393676
8347.644882
6122.116135
6181.031009
8419.726311
11645.818004
12579.772382
10030.633220
6787.967836
6517.241667
9208.630893
10985.704698
10019.094550
6864.905554
4472.419265
4563.184704
7091.221104
10315.850444
11378.946888
9537.210427
6720.010909
5829.810366
7745.990356
8500.457225
7659.440203
4998.177635
2058.865802
2131.767024
5021.435219
7596.604552
8490.192014
7775.578640
5911.056790
5018.817144
6692.478913
7478.735107
7019.746370
4759.935213
1880.252625
1894.859489
4561.816670
6598.991776
7155.113314
6535.148706
5024.936370
4114.448366
5587.360671
6709.473252
6974.015650
5335.326278
3278.663271
3146.723117
4986.500627
6348.891506
6262.674874
5379.361899
4092.628297
3221.445780
4473.833708
5921.434054
6743.029601
5573.516797
4053.150978
4001.702239
5402.525923
6219.303252
5409.113052
4246.375117
3200.320616
2532.674369
3638.883014
5182.786496
6200.485426
5350.785782
4197.552858
4212.253131
5313.549358
5784.470611
4638.178571
3328.088902
2448.158107
2053.036381
3034.811888
4361.196103
5250.983122
4695.115942
3891.502769
3903.233548
4707.092259
4975.100246
3898.922209
2674.890005
1900.995349
1714.613670
2584.890040
3586.369615
4204.445017
3869.811687
3304.435840
3321.177360
3793.035942
3805.017318
3030.759996
2124.179772
1493.653493
1394.069968
2127.335486
2973.198663
3351.208353
3083.413035
2680.040913
2638.449561
2840.669464
2710.231425
2230.252202
1620.337583
1149.983951
1075.283553
1604.105204
2280.943164
2677.754902
2408.676547
1996.332052
1863.653395
1952.648661
1840.232443
1510.026534
1128.947171
833.422160
785.524987
1097.036871
1469.276541
1746.046374
1655.141703
1348.693430
1165.971525
1153.326958
1104.954330
944.657319
749.710528
583.265001
553.933093
723.545611
892.032407
992.359553
948.381691
800.892417
678.852402
640.817785
616.810833
557.998122
473.411231
392.776787
3057.458736
3661.262655
4026.728340
3983.511713
3642.629177
3331.476958
3294.722257
3564.722253
3900.288148
3975.187161
3659.413864
3085.823770
3708.818385
4621.152176
5158.763368
4990.449306
4341.716669
3842.930119
3873.809883
4397.164056
5017.718558
5184.041009
4677.473495
3798.244304
4116.909327
5207.145777
5830.381739
5540.142214
4630.700660
3907.751359
3922.763197
4689.089134
5640.373141
5967.753086
5357.327088
4268.965051
4070.106445
5029.924759
5456.213368
4985.578602
3933.752668
3105.206500
3181.278755
4121.662745
5215.650184
5693.599616
5248.609466
4257.201247
3686.877021
4390.540639
4569.528210
4019.809479
2929.159403
1894.289756
1978.547954
3071.374408
4180.589666
4747.624708
4576.806538
3861.225689
3169.592794
3712.227646
3803.679632
3342.560349
2306.261584
909.998044
895.134472
2266.337879
3341.389512
3876.634541
3822.769090
3313.572614
2615.042137
3073.346914
3251.931007
2989.817370
2150.138240
984.848152
990.502336
2102.945319
2901.568242
3224.118118
3133.202844
2730.489245
2107.975103
2543.587199
2880.952110
2894.218026
2347.589869
1574.407243
1468.486610
2137.616958
2649.237868
2716.715544
2517.816003
2179.548131
1701.555126
2133.172127
2562.807582
2717.272206
2361.116931
1831.259617
1773.932178
2217.403503
2506.756374
2364.567079
2036.925351
1715.588267
1406.487487
1842.113030
2281.371503
2474.556138
2239.935982
1856.529625
1796.988174
2071.728030
2214.636159
1996.806393
1644.185549
1344.917319
1189.957887
1592.739782
1981.660183
2147.113805
1981.949978
1695.457104
1620.218482
1776.226370
1835.036323
1634.465801
1324.446247
1055.294537
986.763385
1335.039160
1665.211363
1796.064016
1660.536191
1426.444782
1330.211953
1397.845265
1405.044167
1253.276493
1018.157889
811.087045
793.276508
1059.258405
1314.022865
1424.422676
1322.654048
1121.996199
1000.332830
1006.270354
1000.081740
898.942831
746.520968
605.168653
608.570562
788.857502
956.990846
1031.279743
961.920025
803.184427
686.107223
659.927571
649.509030
594.312109
510.861286
432.001318
450.190082
560.558104
652.774895
688.083386
643.667931
541.426303
447.239719
403.833226
389.650196
366.302845
329.545181
292.120751
2097.761150
2389.864481
2532.599774
2487.978618
2337.559282
2225.044067
2248.756171
2397.273149
2561.456685
2609.088837
2468.726069
2188.461200
2439.738858
2826.115449
3024.477963
2959.837405
2723.073640
2522.732653
2525.979912
2744.476551
3011.162562
3102.100349
2927.217079
2552.909598
2613.480967
3033.575033
3211.104425
3065.746148
2726.188821
2481.446343
2530.274785
2848.341352
3215.777705
3369.021631
3190.578298
2771.741662
2573.580156
2946.186356
3064.455537
2859.879003
2466.285521
2163.439765
2203.860886
2580.926744
3027.885269
3256.811786
3143.715980
2761.566716
2354.907171
2630.272289
2648.249037
2368.708142
1914.069582
1540.751565
1598.376209
2057.783597
2558.872964
2853.655091
2835.184015
2550.878585
2033.730805
2230.182009
2201.758815
1910.527529
1407.679039
908.637030
968.390104
1511.866069
2043.874974
2366.094765
2413.455918
2223.864872
1693.493901
1845.596033
1831.702437
1600.681402
1118.453383
473.521790
459.298291
1112.238269
1630.027369
1925.573955
1987.747360
1859.757658
1375.328501
1524.013123
1565.974565
1425.836101
1046.380107
502.653738
436.509762
970.107869
1377.738358
1576.502179
1606.909874
1510.730143
1130.186014
1293.541985
1394.746962
1342.772610
1079.112204
714.363187
629.815052
932.344055
1203.917951
1308.779269
1290.878693
1204.200634
940.232140
1121.355260
1258.207250
1261.795020
1079.349940
813.329792
730.797422
900.918116
1063.683451
1097.435582
1039.046973
949.999094
798.436784
979.598605
1122.172231
1146.481200
1012.916533
810.821891
726.116724
811.293938
901.446408
897.369623
829.282961
744.987784
676.631994
841.406448
969.541142
995.574606
896.275787
733.473813
640.257854
669.198189
716.582160
704.196525
644.420899
575.397454
561.117537
695.539041
800.215920
823.664209
745.036238
611.768513
515.251681
507.347715
529.247911
517.242729
478.079353
432.978019
451.378941
548.223988
621.961631
637.924049
580.793680
476.750256
386.213797
353.108277
358.807322
354.206187
335.973285
312.953842
353.244111
418.379042
463.601400
469.297470
426.893078
349.230834
272.359452
230.910835
221.986146
223.151164
221.871191
218.517598

VECTORS B_Vector double
-2860.76 -4240.6562 2927.2319
-2012.1481 -6555.708 4386.9761
894.288 -8117.106 5376.272
4477.4502 -6947.5601 4762.5601
6281.6523 -3954.5801 2927.2319
6499.2144 -1179.162 1002.848
6407.8623 1224.838 -780.208
6007.5962 3941.3582 -2640.7041
4163.728 6714.3721 -4340.5122
808.946 7746.8901 -4965.8398
-1947.24 6315.3081 -4175.9521
-2817.488 4118.0522 -2880.7681
-5393.374 -4279.1201 4923.248
-5721.52 -8746.9541 9405.0879
109.382 -13240.0303 13753.3438
8436.8379 -10531.9238 11712.7998
10269.8887 -4019.488 5728.624
8815.4678 -622.636 1500.4
8713.2979 1240.464 -1467.488
9772.2598 4576.0142 -5349.168
7659.144 10522.3086 -10589.9199
-104.574 12824.1387 -12371.04
-5440.252 8567.8564 -8748.7842
-5304.4263 4283.9282 -4816.7681
-7713.2344 -1772.9501 6909.584
-12462.3359 -3906.5 18442.3359
-1496.49 -7760.1123 22959.0234
14241.2959 -3625.2322 22931.9199
13954.0186 2010.946 8588.0957
9370.792 1025.306 1773.376
9391.2266 -312.52 -1754.016
13881.8984 -387.044 -8487.4238
14212.4482 6790.0981 -22906.752
-1861.8981 11934.6582 -22951.2793
-12475.5586 5455.8779 -17605.9844
-7905.5542 2057.824 -6861.1841
-6889.8643 1522.9341 7118.6719
-6492.002 5644.5923 15294.4004
6751.6343 14231.6807 16881.9199
13776.1221 14265.3359 5931.9038
7204.7881 10436.9658 1734.656
5352.5059 2819.8921 418.176
5708.2983 -2359.5261 -853.776
8690.46 -9647.252 -3107.28
13482.834 -14264.1338 -11122.3203
3922.126 -14238.8926 -19197.375
-8315.4365 -5925.8604 -15354.416
-7364.6543 -1507.308 -6983.1519
-5251.5381 2842.73 6599.8237
-2508.574 4245.4639 15069.8242
13575.3887 7802.1821 7116.7358
13833.8184 11623.3398 -10467.9521
-1156.324 8278.1738 -5924.1602
-387.044 2507.3721 -1103.52
10.818 -2773.0142 886.688
399.064 -8627.9561 5132.3359
13522.5 -11419.0 5221.3921
10393.6943 -7423.5522 -9259.8877
-4019.488 -4482.2583 -12913.1201
-5466.6963 -2918.4561 -6082.9121
-3675.7161 3859.6221 5639.5679
-897.894 5798.4482 13573.2959
14206.4385 6445.124 8216.3838
14048.9766 7249.2622 -16012.6563
-5487.1299 4722.6582 -9468.9756
-4785.1621 1378.694 -2121.856
-4443.7939 -2127.54 2104.4319
-3788.7041 -5554.4419 9517.376
14192.0146 -6689.1299 9286.9922
12801.2998 -5126.5303 -9060.4795
-2711.7122 -5208.2661 -11530.8164
-3947.3682 -3613.2122 -5111.04
-1774.152 4306.7661 4146.9121
1108.244 6556.9102 9680.0
14167.9746 7138.6782 3773.2639
12106.5439 5048.3999 -19350.3203
-7744.4863 2198.458 -10218.208
-7254.0703 469.982 -2307.7119
-6981.2163 -1393.118 2797.52
-6108.564 -3343.9641 11352.7041
13976.8564 -5389.7681 12440.7363
12522.4365 -6680.7163 -6766.3198
-890.682 -5960.7183 -8543.5684
-2285.002 -4006.2661 -3823.6001
43.272 3988.2361 2487.76
3150.4421 5865.7603 5351.104
13241.2324 5793.6401 -1663.024
7478.8442 2152.782 -20790.7031
-8743.3486 236.794 -9542.5439
-8174.8022 -207.946 -2104.4319
-8050.9961 -726.008 3014.3521
-7449.9961 -1405.1381 11579.2158
11644.9766 -3645.666 14318.6563
11289.1846 -5949.8999 -2052.1599
1288.5441 -5435.4443 -4909.6958
-653.888 -3770.6741 -2431.616
1314.988 3039.8582 1128.688
4152.9102 3905.2981 2065.7119
10450.1885 2607.1379 -4779.9839
3767.0681 -843.804 -18659.168
-8379.1426 -1218.828 -8028.5918
-7942.8159 -506.042 -1769.504
-7901.9482 -21.636 2793.6479
-7689.1943 475.992 10365.3438
8029.3604 -921.934 14740.7041
9761.4424 -4000.2561 2131.5359
2581.896 -4175.748 -2143.1521
633.454 -3061.4941 -1190.64
1937.624 2006.1381 96.8
4152.9102 2435.252 -286.528
7101.416 573.354 -5203.9678
1460.4301 -2748.9741 -14020.5117
-7011.2661 -1783.7681 -5966.752
-6888.6621 -605.808 -1223.552
-6891.0659 442.336 2383.2161
-6554.5063 1769.344 8189.2798
4910.1699 1982.098 11968.3516
7073.77 -1246.474 3779.072
3138.4221 -2491.7461 -121.968
1372.6841 -2093.884 -296.208
2077.0562 915.924 -410.432
3811.542 596.192 -1628.176
4098.8203 -825.774 -4656.0801
751.25 -2911.2441 -8992.7197
-5687.8643 -1367.876 -4783.856
-5709.5 -306.51 -989.296
-5715.5103 627.444 1881.792
-4777.9502 1795.7881 6741.1519
2501.3621 3096.3521 7128.3521
4231.04 528.88 3806.176
2964.1321 -943.57 1024.144
1602.266 -1173.152 265.232
1741.698 96.16 -522.72
2913.6479 -639.464 -1432.64
3170.876 -1140.698 -5407.248
-908.712 -1740.496 -5997.728
-3526.668 -2075.854 -3478.9919
-4464.228 -152.654 -1300.9919
-4984.6938 1058.962 1513.952
-2147.9741 2104.7021 5337.5518
1040.932 2224.9021 3997.8401
2574.6841 1295.756 2838.176
2139.5601 96.16 1078.3521
1391.916 -457.962 423.984
1228.444 -300.5 -429.792
1748.91 -1044.538 -880.88
2452.0801 -2656.4202 -2220.592
48.08 -2696.0859 -6820.5278
-3045.8682 -816.158 -2938.8479
-3246.6021 -669.514 -1333.9041
-3263.4302 788.512 290.4
-1625.104 2377.5562 3343.4719
585.374 2114.3181 2735.5679
1400.3301 1331.816 1506.208
1337.826 461.568 789.888
1037.326 -49.282 387.2
762.068 -432.72 -298.144
888.278 -933.954 -491.744
823.37 -1722.4661 -797.632
150.25 -2779.0242 -1318.416
-1575.822 -2293.416 -1225.488
-1861.8981 -836.592 -456.896
-1720.062 213.956 271.04
-1024.104 1264.504 950.576
58.898 1388.3101 1041.568
625.04 933.954 782.144
770.482 454.356 503.36
703.17 99.766 288.464
441.134 -387.044 -203.28
420.7 -670.716 -280.72
244.006 -996.458 -362.032
-173.088 -1205.6061 -396.88
-704.372 -1014.488 -307.824
-988.044 -474.79 -79.376
-925.54 127.412 201.344
-566.142 584.172 406.56
-91.352 732.018 460.768
258.43 598.596 391.072
418.296 366.61 274.912
437.528 146.644 162.624
-1593.8521 -2674.45 2996.928
-758.462 -3654.0801 4100.4478
1057.76 -4133.6782 4690.9277
3104.7661 -3490.6082 4092.7039
4312.7759 -2049.4102 2545.8401
4669.77 -558.93 811.184
4621.6899 816.158 -861.52
4170.9399 2252.5481 -2522.6079
2902.8301 3590.374 -3943.6321
908.712 4151.708 -4510.8799
-840.198 3640.8582 -3997.8401
-1652.75 2662.4299 -2991.1199
-2611.946 -2312.6479 4499.2642
-1775.354 -3500.2241 6942.4961
1092.618 -4182.96 8646.1758
4483.46 -3293.48 7445.856
5917.4463 -1581.832 4249.52
5899.416 -337.762 1300.9919
5830.9023 587.778 -1246.7839
5715.5103 1883.5341 -4121.7441
4184.1621 3608.4041 -7112.8638
848.612 4446.1982 -8264.7842
-1918.3921 3657.686 -6735.3437
-2729.7419 2384.7681 -4454.7358
-3274.248 -800.532 5709.2642
-2395.5859 -854.622 9569.6475
1527.7421 -288.48 12429.1201
5872.9722 769.28 10032.3516
6703.5542 1140.698 4841.936
5972.7383 627.444 1188.704
5989.5659 -93.756 -1523.632
6630.2319 -414.69 -5172.9922
5512.3721 185.108 -10256.9277
985.64 1119.062 -12491.0723
-2847.5381 1290.948 -9530.9277
-3547.1021 936.358 -5711.2002
-2823.498 1040.932 5780.896
-1083.0021 2420.8281 8818.4795
3152.8459 4690.2041 9420.5762
5876.5781 5610.936 5862.208
5167.3979 3902.894 2278.6719
4240.6562 1331.816 495.616
4339.2202 -1092.618 -894.432
5374.1421 -3432.9121 -3101.4719
5597.7139 -4889.7363 -7153.52
2260.9622 -4119.2539 -10363.4082
-1908.776 -2158.792 -9091.4561
-3263.4302 -942.368 -5798.3198
-1805.4041 2117.9241 5122.6558
775.29 3366.802 6932.8159
4913.7759 4920.9883 4888.3999
5283.9922 5544.8262 36.784
2508.574 4050.74 -1510.08
1378.694 1367.876 -683.408
1577.024 -1429.178 121.968
2994.1821 -4001.458 487.872
5144.5601 -5332.0723 -1676.576
3805.532 -4685.396 -5970.624
-235.592 -3244.198 -7062.5278
-2294.6179 -2073.45 -5037.4722
-817.36 2697.2881 4152.7202
1871.514 3637.252 5296.896
5644.5923 4274.312 2408.384
4710.6382 4157.7183 -3130.512
484.406 2858.356 -3775.2
-1068.578 834.188 -1302.928
-841.4 -1306.574 1084.16
1105.84 -3198.522 3058.8799
4812.8081 -4247.8682 1529.4399
4608.4683 -4150.5059 -3568.0481
836.592 -3480.9919 -5467.2642
-1343.8361 -2590.3101 -4090.7681
109.382 2893.2141 2923.3599
2554.25 3697.3521 3320.24
5487.1299 3859.6221 108.416
3615.616 3075.918 -5109.104
-1129.88 1756.1221 -4909.6958
-2811.478 411.084 -1635.92
-2545.8359 -942.368 1591.392
-260.834 -2256.1541 4439.248
4169.7383 -3341.5601 3428.656
4679.3862 -3840.3901 -1604.944
1522.9341 -3549.5061 -3744.2239
-456.76 -2776.6201 -2971.76
875.056 2634.7839 1633.984
2890.8101 3150.4421 1316.48
4811.606 2893.2141 -1881.792
2336.688 1787.374 -6067.4238
-2158.792 733.22 -5085.8721
-3727.4021 44.474 -1591.392
-3487.002 -597.394 1870.176
-1271.7161 -1364.27 5070.3838
3174.4822 -2387.1721 4785.792
4339.2202 -3199.7241 437.536
2037.39 -3193.7141 -1918.576
311.318 -2605.936 -1831.4559
1352.25 2068.6421 553.696
2861.9622 2232.114 -261.36
3794.7141 1623.902 -3134.384
1144.3041 502.436 -6073.2319
-2662.4299 -85.342 -4640.5918
-3965.3982 -193.522 -1362.944
-3769.4722 -225.976 1866.304
-1857.0901 -427.912 4960.0317
2108.3081 -1151.516 5262.0479
3668.5042 -2110.7122 1897.28
2244.134 -2424.4341 -402.688
870.248 -2129.9441 -836.352
1530.146 1355.8561 -187.792
2518.1899 1230.848 -1163.536
2716.52 503.638 -3374.448
370.216 -390.65 -5223.3281
-2644.4001 -545.708 -3841.0239
-3721.3921 -245.208 -1111.264
-3549.5061 102.17 1620.432
-1980.896 329.348 4257.2642
1222.4341 6.01 4822.5762
2810.2761 -923.136 2540.032
2135.9541 -1496.49 594.352
1152.718 -1507.308 -114.224
1470.046 669.514 -574.992
2044.6021 379.832 -1535.248
1794.5861 -241.602 -3095.6641
-81.736 -825.774 -4121.7441
-2309.042 -730.816 -3018.2239
-3179.29 -250.016 -865.392
-3035.05 283.672 1318.416
-1693.618 747.644 3310.5601
627.444 724.806 3682.272
1901.5641 -6.01 2359.9839
1757.324 -652.686 998.976
1164.738 -889.48 288.464
1228.444 127.412 -646.624
1565.004 -250.016 -1419.088
1227.2421 -701.968 -2615.5359
-278.864 -967.61 -3196.3359
-1852.282 -784.906 -2336.752
-2544.634 -215.158 -813.12
-2444.8682 403.872 906.048
-1319.796 881.066 2356.1121
262.036 924.338 2534.2239
1193.5861 465.174 1825.6479
1295.756 -75.726 969.936
992.852 -406.276 414.304
905.106 -186.31 -549.824
1062.568 -592.586 -1045.4399
829.38 -1067.376 -1837.264
-229.582 -1206.808 -2379.344
-1384.704 -883.47 -1761.76
-1852.282 -332.954 -665.984
-1765.738 342.57 487.872
-989.246 861.834 1446.192
51.686 915.924 1595.264
688.746 611.818 1196.448
848.612 203.138 716.32
741.634 -103.372 365.904
602.202 -313.722 -394.944
627.444 -623.838 -648.56
430.316 -991.65 -995.104
-151.452 -1194.788 -1264.208
-884.672 -942.368 -1033.824
-1215.222 -405.074 -422.048
-1135.89 162.27 207.152
-686.342 599.798 706.64
-75.726 704.372 847.968
352.186 526.476 700.832
520.466 260.834 472.384
515.658 28.848 271.04
371.418 -308.914 -271.04
334.156 -513.254 -385.264
170.684 -716.392 -503.36
-147.846 -810.148 -553.696
-509.648 -669.514 -437.536
-706.776 -332.954 -176.176
-667.11 48.08 116.16
-426.71 335.358 340.736
-98.564 435.124 425.92
167.078 365.408 387.2
307.712 217.562 286.528
343.772 66.11 178.112
-719.998 -1601.0641 2503.248
-57.696 -1944.8361 3101.4719
1015.69 -2036.188 3322.176
2152.782 -1716.4561 2878.832
2922.062 -1093.8201 1879.856
3246.6021 -364.206 652.432
3214.1479 375.024 -619.52
2835.5181 1114.254 -1850.816
2027.774 1751.3141 -2834.304
895.49 2060.228 -3279.584
-162.27 1950.8461 -3091.792
-808.946 1579.428 -2524.5439
-1080.598 -1192.384 3341.5359
-278.864 -1466.4401 4373.4238
1159.9301 -1482.066 4803.2158
2655.218 -1102.234 4079.1521
3517.052 -531.284 2489.696
3770.6741 -56.494 739.552
3743.0281 332.954 -940.896
3423.2961 801.734 -2640.7041
2488.1401 1337.826 -4146.9121
954.388 1656.3561 -4818.7041
-462.77 1566.2061 -4383.104
-1218.828 1230.848 -3380.2561
-1223.636 -335.358 3916.5281
-277.662 -237.996 5194.2881
1425.572 57.696 5653.1201
3042.262 391.852 4613.4878
3753.8459 462.77 2671.6799
3822.3601 233.188 778.272
3795.916 -64.908 -987.36
3660.0901 -212.754 -2923.3599
2839.124 -88.948 -4872.9121
1128.678 206.744 -5856.3999
-570.95 391.852 -5312.3838
-1449.6121 394.256 -3995.9041
-968.812 685.14 3893.2959
177.896 1203.202 4880.6558
1878.7261 1811.4141 4791.6001
3055.4841 2045.8041 3366.7041
3206.936 1591.448 1630.1119
3023.03 634.656 317.504
3044.666 -442.336 -809.248
3199.7241 -1348.644 -2220.592
2849.9421 -1764.536 -3995.9041
1464.036 -1562.6 -5275.6001
-262.036 -1048.144 -5136.208
-1294.5541 -622.636 -4007.52
-468.78 1390.714 3382.1919
811.35 1977.29 3835.2161
2312.6479 2513.3821 3035.6479
2793.448 2554.25 1353.264
2262.1641 1849.8781 201.344
1783.7681 623.838 -131.648
1824.636 -713.988 -274.912
2312.6479 -1857.0901 -797.632
2632.3801 -2473.7161 -2104.4319
1863.1 -2404.0 -3645.488
312.52 -1911.1801 -4146.9121
-847.41 -1367.876 -3509.968
56.494 1783.7681 2619.408
1317.392 2263.366 2631.0239
2478.5239 2532.614 1382.304
2319.8601 2369.1421 -422.048
1179.162 1635.922 -1119.0079
435.124 509.648 -615.648
525.274 -706.776 160.688
1358.26 -1753.718 464.64
2287.406 -2396.7881 -433.664
2074.6521 -2502.564 -2112.176
793.32 -2210.478 -3016.2881
-344.974 -1751.3141 -2791.7119
508.446 1857.0901 1769.504
1595.0541 2182.832 1461.6799
2385.97 2208.074 81.312
1789.7781 1823.4341 -1552.672
310.116 1111.85 -1814.032
-575.758 244.006 -760.848
-465.174 -650.282 584.672
558.93 -1462.834 1403.6
1861.8981 -2063.834 832.48
2081.864 -2327.072 -803.44
1123.87 -2222.498 -1901.152
111.786 -1876.322 -1980.528
824.572 1716.4561 904.112
1657.558 1897.958 346.544
2044.6021 1748.91 -1029.952
1137.092 1263.302 -2342.5601
-423.104 659.898 -2212.8479
-1308.978 98.564 -869.264
-1179.162 -445.942 753.104
-93.756 -1006.074 1883.728
1366.6741 -1550.5801 1657.2159
1897.958 -1925.604 265.232
1284.938 -1979.6941 -877.008
465.174 -1756.1221 -1204.192
1004.872 1354.6541 224.576
1583.0341 1361.866 -435.6
1640.73 1086.608 -1641.728
610.616 625.04 -2572.9441
-845.006 222.37 -2193.488
-1651.548 -44.474 -789.888
-1532.55 -269.248 851.84
-527.678 -561.334 2079.2639
895.49 -977.226 2127.6641
1611.8821 -1379.896 1043.504
1316.1901 -1554.186 -34.848
705.574 -1472.4501 -526.592
1030.114 920.732 -263.296
1371.4821 807.744 -927.344
1198.394 484.406 -1879.856
198.33 100.968 -2464.5281
-1049.3461 -94.958 -1976.656
-1722.4661 -112.988 -683.408
-1611.8821 -84.14 789.888
-750.048 -137.028 1926.3199
495.224 -385.842 2123.792
1245.272 -760.866 1362.944
1193.5861 -1026.5081 474.32
795.724 -1083.0021 -52.272
951.984 502.436 -507.232
1115.4561 323.338 -1089.968
835.39 36.06 -1796.608
-34.858 -221.168 -2135.408
-1040.932 -269.248 -1664.96
-1585.438 -129.816 -586.608
-1490.48 52.888 633.072
-786.108 151.452 1585.584
215.158 46.878 1821.776
887.076 -252.42 1349.392
989.246 -543.304 693.088
766.876 -691.15 218.768
793.32 150.25 -567.248
849.814 -57.696 -1028.016
554.122 -301.702 -1541.056
-149.048 -441.134 -1734.656
-911.116 -384.64 -1333.9041
-1325.806 -159.866 -501.424
-1247.676 112.988 447.216
-699.564 296.894 1173.2159
48.08 277.662 1376.496
582.97 67.312 1107.392
741.634 -194.724 669.856
647.878 -378.63 307.824
609.414 -67.312 -503.36
608.212 -274.056 -822.8
364.206 -480.8 -1167.408
-161.068 -566.142 -1297.12
-718.796 -455.558 -1012.528
-1020.498 -198.33 -422.048
-964.004 99.766 247.808
-574.556 312.52 764.72
-48.08 346.176 937.024
352.186 211.552 799.568
519.264 8.414 536.272
503.638 -164.674 292.336
426.71 -183.906 -393.008
391.852 -359.398 -582.736
206.744 -522.87 -774.4
-138.23 -581.768 -840.224
-509.648 -471.184 -665.984
-711.584 -228.38 -294.272
-674.322 45.676 118.096
-425.508 247.612 439.472
-82.938 305.308 567.248
195.926 227.178 513.04
337.762 85.342 373.648
364.206 -51.686 226.512
280.066 -207.946 -284.592
234.39 -332.954 -385.264
100.968 -441.134 -470.448
-114.19 -473.588 -485.936
-336.56 -390.65 -385.264
-463.972 -211.552 -181.984
-444.74 -8.414 46.464
-296.894 147.846 230.384
-86.544 211.552 315.568
98.564 179.098 303.952
210.35 92.554 236.192
250.016 -4.808 151.008
-251.218 -924.338 1866.304
221.168 -1030.114 2145.0879
859.43 -1003.67 2160.5759
1501.298 -807.744 1812.0959
1970.078 -488.012 1159.6639
2193.6501 -126.21 350.416
2178.0239 240.4 -505.296
1920.796 591.384 -1306.8
1426.774 885.874 -1934.064
771.684 1048.144 -2261.248
131.018 1042.134 -2234.144
-332.954 912.318 -1961.168
-358.196 -632.252 2329.0081
199.532 -688.746 2733.6321
976.024 -641.868 2789.7759
1740.496 -484.406 2344.4961
2258.5581 -272.854 1496.528
2477.322 -75.726 470.448
2453.282 115.392 -590.48
2190.0439 331.752 -1620.432
1633.5181 552.92 -2468.3999
842.602 700.766 -2902.064
64.908 721.2 -2836.24
-479.598 634.656 -2425.8081
-369.014 -118.998 2584.5601
260.834 -38.464 3022.0959
1102.234 99.766 3014.3521
1858.292 227.178 2427.7439
2297.022 253.622 1446.192
2448.4741 151.452 373.648
2434.05 0.0 -691.152
2240.5281 -98.564 -1755.952
1734.4861 -86.544 -2706.5281
913.52 6.01 -3242.8
56.494 97.362 -3188.592
-545.708 132.22 -2714.272
-235.592 451.952 2522.6079
431.518 653.888 2840.1121
1240.464 838.996 2673.616
1853.484 871.45 1996.016
2102.2981 657.494 1109.328
2133.55 245.208 261.36
2119.126 -221.168 -563.376
2042.198 -599.798 -1459.744
1715.254 -787.31 -2367.728
1022.902 -760.866 -2996.928
185.108 -601.0 -3080.176
-459.164 -429.114 -2689.104
-1.202 895.49 2178.0
663.504 1145.506 2272.864
1334.22 1317.392 1870.176
1662.3661 1268.11 1113.2
1626.306 919.53 416.24
1504.9041 328.146 -38.72
1507.308 -347.378 -402.688
1609.478 -911.116 -902.176
1551.782 -1238.0601 -1614.624
1104.6381 -1284.938 -2296.0959
383.438 -1127.4761 -2572.9441
-254.824 -899.096 -2373.5359
248.814 1146.708 1661.088
853.42 1352.25 1554.608
1343.8361 1425.572 1004.784
1401.532 1268.11 278.784
1108.244 852.218 -164.56
848.612 245.208 -212.96
865.44 -414.69 -129.712
1119.062 -984.438 -253.616
1324.604 -1354.6541 -766.656
1135.89 -1473.652 -1461.6799
579.364 -1379.896 -1893.408
-8.414 -1169.546 -1891.472
456.76 1216.4241 1086.0959
947.176 1357.058 816.992
1230.848 1342.634 193.6
1049.3461 1119.062 -456.896
560.132 700.766 -667.92
211.552 171.886 -387.2
250.016 -382.236 48.4
631.05 -882.268 245.872
1043.3361 -1251.282 -52.272
1086.608 -1431.582 -691.152
706.776 -1414.754 -1204.192
213.956 -1259.696 -1351.328
594.99 1114.254 544.016
955.59 1171.9501 189.728
1061.366 1075.79 -410.432
717.594 822.168 -917.664
137.028 468.78 -925.408
-246.41 74.524 -431.728
-199.532 -323.338 214.896
236.794 -707.978 619.52
763.27 -1032.5181 499.488
973.62 -1239.262 -40.656
766.876 -1289.746 -574.992
383.438 -1199.5961 -834.416
661.1 911.116 100.672
887.076 894.288 -294.272
841.4 746.442 -824.736
406.276 502.436 -1177.088
-188.714 236.794 -1035.76
-560.132 -3.606 -443.344
-508.446 -231.986 290.4
-67.312 -474.79 799.568
496.426 -729.614 818.928
812.552 -941.166 408.496
752.452 -1045.74 -81.312
486.81 -1028.912 -393.008
656.292 641.868 -203.28
771.684 569.748 -580.8
629.848 411.084 -1008.656
181.502 218.764 -1229.36
-369.014 60.1 -1012.528
-700.766 -44.474 -410.432
-652.686 -129.816 302.016
-254.824 -245.208 828.608
280.066 -418.296 937.024
637.06 -610.616 652.432
679.13 -748.846 240.064
519.264 -792.118 -73.568
597.394 377.428 -371.712
629.848 272.854 -698.896
442.336 121.402 -1024.144
22.838 -18.03 -1146.1119
-444.74 -85.342 -906.048
-718.796 -82.938 -365.904
-675.524 -60.1 259.424
-337.762 -75.726 733.744
121.402 -169.482 877.008
461.568 -322.136 698.896
564.94 -467.578 387.2
489.214 -550.516 112.288
503.638 156.26 -423.984
491.618 43.272 -681.472
301.702 -82.938 -917.664
-52.888 -169.482 -979.616
-430.316 -174.29 -766.656
-647.878 -105.776 -327.184
-614.222 -15.626 180.048
-347.378 31.252 571.12
19.232 -2.404 716.32
311.318 -112.988 621.456
437.528 -245.208 404.624
419.498 -346.176 187.792
396.66 0.0 -396.88
359.398 -112.988 -584.672
193.522 -217.562 -745.36
-82.938 -268.046 -774.4
-367.812 -234.39 -604.032
-531.284 -132.22 -272.976
-504.84 -9.616 102.608
-307.712 72.12 396.88
-33.656 75.726 522.72
197.128 3.606 478.192
317.328 -102.17 342.672
334.156 -199.532 189.728
293.288 -90.15 -331.056
248.814 -187.512 -451.088
118.998 -269.248 -547.888
-80.534 -299.298 -557.568
-283.672 -252.42 -439.472
-399.064 -147.846 -214.896
-383.438 -25.242 38.72
-248.814 64.908 242.0
-56.494 90.15 342.672
115.392 50.484 331.056
218.764 -26.444 253.616
250.016 -106.978 154.88
205.542 -127.412 -257.488
161.068 -201.936 -329.12
66.11 -260.834 -377.52
-69.716 -275.258 -373.648
-203.138 -233.188 -294.272
-278.864 -144.24 -152.944
-269.248 -40.868 3.872
-182.704 39.666 135.52
-54.09 70.918 203.28
64.908 51.686 207.152
146.644 1.202 166.496
181.502 -58.898 106.48
