# vtk DataFile Version 3.0
Magnetic Field Scan Structured
ASCII
DATASET STRUCTURED_POINTS
DIMENSIONS 17 21 6
ORIGIN 106.0 127.0 -28.0
SPACING 5.0 5.0 5.0
POINT_DATA 2142
SCALARS B_Magnitude double 1
LOOKUP_TABLE default
91411.429310
92389.378440
95346.623789
99166.123482
0.000000
0.000000
0.000000
0.000000
0.000000
0.000000
0.000000
0.000000
0.000000
97031.990860
102645.089992
104086.786698
104874.549353
90660.744452
90635.892166
92524.152983
100101.244370
0.000000
0.000000
0.000000
0.000000
0.000000
0.000000
0.000000
0.000000
0.000000
97240.498622
92709.994334
94777.154921
99098.652875
91259.848543
89840.108434
94386.116347
96771.243745
0.000000
0.000000
0.000000
0.000000
0.000000
0.000000
0.000000
0.000000
0.000000
93783.020727
91210.984330
90467.852611
97942.403633
95156.671414
96321.708606
94031.002799
100930.269454
0.000000
0.000000
0.000000
0.000000
0.000000
0.000000
0.000000
0.000000
0.000000
96256.556734
92970.634482
96414.950259
97765.726162
99220.600690
96520.322154
98056.749374
98121.673765
0.000000
0.000000
0.000000
0.000000
0.000000
0.000000
0.000000
0.000000
0.000000
97002.731668
97158.373143
98055.668886
101328.790739
97338.927439
97047.639210
92552.347337
97524.728493
0.000000
0.000000
0.000000
0.000000
0.000000
0.000000
0.000000
0.000000
0.000000
96169.044172
94540.250205
98171.577433
99319.578591
99062.039580
94792.372951
94792.724708
93397.210952
0.000000
0.000000
0.000000
0.000000
0.000000
0.000000
0.000000
0.000000
0.000000
93371.192737
94091.340555
96372.007543
101118.302004
94014.042151
92772.060385
87608.254054
91663.379656
0.000000
0.000000
0.000000
0.000000
0.000000
0.000000
0.000000
0.000000
0.000000
90198.258069
89493.438707
93697.818353
95667.731736
91641.451616
87446.825367
87514.292000
85866.147153
0.000000
0.000000
0.000000
0.000000
0.000000
0.000000
0.000000
0.000000
0.000000
85057.212695
86593.060604
89237.503046
93957.378422
83367.116330
82879.846976
78206.974325
82145.290781
0.000000
0.000000
0.000000
0.000000
0.000000
0.000000
0.000000
0.000000
0.000000
79602.326360
79508.997140
83623.701199
85680.141885
76894.377839
75556.553691
77595.149648
76322.319359
0.000000
0.000000
0.000000
0.000000
0.000000
0.000000
0.000000
0.000000
0.000000
72670.035938
74345.143819
76842.424323
80984.278168
69461.947478
71566.952064
67954.311621
73359.848282
0.000000
0.000000
0.000000
0.000000
0.000000
0.000000
0.000000
0.000000
0.000000
66658.559585
66398.270027
69833.459669
71153.274762
68330.689886
67512.703407
68372.870281
66585.818748
0.000000
0.000000
0.000000
0.000000
0.000000
0.000000
0.000000
0.000000
0.000000
61175.399128
61573.874769
62217.709661
64752.635285
0.000000
62861.912374
58618.147356
61942.306603
0.000000
0.000000
0.000000
0.000000
0.000000
0.000000
0.000000
0.000000
0.000000
55591.612802
54647.796643
55092.642673
53430.428835
0.000000
53717.754546
54756.169718
54089.406758
52027.539545
0.000000
0.000000
0.000000
0.000000
0.000000
0.000000
0.000000
0.000000
50063.189106
48472.798159
48429.839599
47939.331586
0.000000
48764.233950
45689.821536
46836.921117
43954.421403
0.000000
0.000000
0.000000
0.000000
0.000000
0.000000
0.000000
43485.085786
44753.272978
42482.175375
42345.495789
40668.533393
0.000000
40723.354229
42988.670797
41407.576842
42251.954372
37952.202017
0.000000
0.000000
0.000000
0.000000
0.000000
36686.309292
39165.840151
38742.244194
37778.732982
36692.881016
0.000000
0.000000
0.000000
36447.375396
38884.196722
38246.777282
35859.432191
33967.797747
31878.948093
32599.460707
31752.414800
32015.042787
32917.579945
33619.966574
32538.580250
32940.557227
32022.214540
0.000000
0.000000
0.000000
0.000000
34891.454425
33599.348959
30007.397614
29654.999274
28135.032603
29508.901824
28547.793956
28426.978566
28740.822503
28907.419137
28467.086056
27629.783581
0.000000
0.000000
0.000000
0.000000
0.000000
0.000000
26311.166267
26401.044253
25682.723450
26418.968374
26134.160300
26010.928206
26146.734943
25693.300552
25442.594914
24766.668820
0.000000
0.000000
0.000000
0.000000
0.000000
0.000000
0.000000
0.000000
23070.293151
23456.186641
23125.118875
24841.956296
23511.368502
23838.593351
22589.987892
0.000000
0.000000
0.000000
0.000000
0.000000
111436.118644
117136.126425
119571.188876
125276.642546
0.000000
0.000000
0.000000
0.000000
0.000000
0.000000
0.000000
0.000000
0.000000
124533.862244
126128.173445
127347.442665
125683.863123
109847.106277
111477.357816
117332.845492
119870.675282
0.000000
0.000000
0.000000
0.000000
0.000000
0.000000
0.000000
0.000000
0.000000
115813.320410
119527.479011
117637.614508
117391.816050
104917.919460
110475.117775
112422.472000
119590.384938
0.000000
0.000000
0.000000
0.000000
0.000000
0.000000
0.000000
0.000000
0.000000
113662.956469
110523.398510
111073.315033
110829.549890
110111.982564
108256.419196
116906.622336
115982.951270
0.000000
0.000000
0.000000
0.000000
0.000000
0.000000
0.000000
0.000000
0.000000
109566.623180
111252.405557
107382.915698
110714.712661
107728.764555
111746.118437
111659.313265
117249.284689
0.000000
0.000000
0.000000
0.000000
0.000000
0.000000
0.000000
0.000000
0.000000
110605.339989
109205.877243
109371.646957
108663.267876
111263.037273
107009.166308
113744.953772
109658.810369
0.000000
0.000000
0.000000
0.000000
0.000000
0.000000
0.000000
0.000000
0.000000
106146.655506
109494.454934
106968.525647
110121.101649
106866.949208
108855.458687
106779.580474
110732.631612
0.000000
0.000000
0.000000
0.000000
0.000000
0.000000
0.000000
0.000000
0.000000
105572.709983
105205.745625
106530.118094
107777.727407
106811.600119
101743.948640
107047.963305
101962.839348
0.000000
0.000000
0.000000
0.000000
0.000000
0.000000
0.000000
0.000000
0.000000
98989.696672
102858.004205
101466.980838
105588.761237
98612.478565
100222.754726
97774.833653
101293.000896
0.000000
0.000000
0.000000
0.000000
0.000000
0.000000
0.000000
0.000000
0.000000
95511.055780
96020.015331
97982.714923
99745.422834
94760.107126
90373.393002
95692.424314
90990.479572
0.000000
0.000000
0.000000
0.000000
0.000000
0.000000
0.000000
0.000000
0.000000
87013.928604
90881.517577
90133.010506
94361.774546
83633.498447
87568.152223
85953.291763
89294.328485
0.000000
0.000000
0.000000
0.000000
0.000000
0.000000
0.000000
0.000000
0.000000
81378.998558
82141.409943
84116.775168
85794.091664
81769.986002
78462.971172
84536.852130
80229.420052
0.000000
0.000000
0.000000
0.000000
0.000000
0.000000
0.000000
0.000000
0.000000
72559.269905
75897.169793
74793.126681
78295.513563
75047.400082
77882.703935
75216.191137
78342.221815
0.000000
0.000000
0.000000
0.000000
0.000000
0.000000
0.000000
0.000000
0.000000
67621.139012
67291.165795
68117.930924
68384.708421
0.000000
68173.631662
72531.512461
66491.729618
0.000000
0.000000
0.000000
0.000000
0.000000
0.000000
0.000000
0.000000
0.000000
59528.350391
61199.067277
58939.828865
59198.484116
0.000000
63176.750938
60174.182737
61375.627732
56979.376630
0.000000
0.000000
0.000000
0.000000
0.000000
0.000000
0.000000
0.000000
53820.976312
53265.104397
52643.653086
51995.548636
0.000000
52880.768343
55192.329150
50830.099143
52777.617853
0.000000
0.000000
0.000000
0.000000
0.000000
0.000000
0.000000
46579.925093
47308.528324
46735.359071
44938.884216
45719.538725
0.000000
48078.357620
46355.602355
46685.549666
45074.081727
45358.236348
0.000000
0.000000
0.000000
0.000000
0.000000
39053.008913
40206.289751
41112.266075
40296.861768
39896.195046
0.000000
0.000000
0.000000
42916.210942
41455.908521
41828.852399
37839.329849
36445.600487
33318.533023
34204.429107
32525.803234
33298.356687
33945.405223
35095.477823
34316.326468
35526.071623
34786.573520
0.000000
0.000000
0.000000
0.000000
39238.718784
35530.589469
33597.596992
30970.797892
31663.606934
30373.115496
30218.075745
29592.782138
30264.761672
30256.281774
30460.104763
30316.100924
0.000000
0.000000
0.000000
0.000000
0.000000
0.000000
31122.414110
28026.237266
28261.456814
27291.582453
28033.596561
26981.030951
27153.052151
26367.304624
26694.026265
26762.187150
0.000000
0.000000
0.000000
0.000000
0.000000
0.000000
0.000000
0.000000
24339.499713
23805.127078
24710.957781
24959.633789
24562.331221
24206.628008
23801.798148
0.000000
0.000000
0.000000
0.000000
0.000000
123852.212671
129526.888351
139163.335485
143614.829527
0.000000
0.000000
0.000000
0.000000
0.000000
0.000000
0.000000
0.000000
0.000000
144363.729692
145652.263119
141976.868263
139830.696709
121425.288647
129758.893980
135749.699645
141359.737477
0.000000
0.000000
0.000000
0.000000
0.000000
0.000000
0.000000
0.000000
0.000000
139232.763162
135672.388477
132960.697826
132884.567264
123353.389871
125146.179192
135857.363286
137618.916681
0.000000
0.000000
0.000000
0.000000
0.000000
0.000000
0.000000
0.000000
0.000000
132922.443285
131224.196467
125068.261908
129379.150201
117367.251256
123175.863863
127695.491910
134543.625095
0.000000
0.000000
0.000000
0.000000
0.000000
0.000000
0.000000
0.000000
0.000000
124605.578764
122195.863968
119671.756850
118094.068105
118946.616829
118947.199061
127921.441395
127033.652348
0.000000
0.000000
0.000000
0.000000
0.000000
0.000000
0.000000
0.000000
0.000000
118648.934016
121218.204095
116926.201622
116841.831329
116503.309989
119666.708851
121521.139377
125705.129606
0.000000
0.000000
0.000000
0.000000
0.000000
0.000000
0.000000
0.000000
0.000000
117313.900009
117115.149852
116042.341134
116150.742459
117215.690577
114937.136048
121763.200263
118673.807564
0.000000
0.000000
0.000000
0.000000
0.000000
0.000000
0.000000
0.000000
0.000000
112299.561312
115663.025417
113017.228753
114924.500214
111335.925477
113161.257047
113606.016483
116503.346384
0.000000
0.000000
0.000000
0.000000
0.000000
0.000000
0.000000
0.000000
0.000000
108484.695949
109510.171568
109591.132619
110901.472036
107894.608115
105125.564448
111205.490147
108006.005886
0.000000
0.000000
0.000000
0.000000
0.000000
0.000000
0.000000
0.000000
0.000000
101175.576392
105006.119188
103393.295225
106062.589259
98349.601535
100464.558411
100957.472886
103757.393865
0.000000
0.000000
0.000000
0.000000
0.000000
0.000000
0.000000
0.000000
0.000000
94888.698218
96309.104010
96905.618508
98566.802434
92649.398003
91347.591822
97237.836984
94641.150025
0.000000
0.000000
0.000000
0.000000
0.000000
0.000000
0.000000
0.000000
0.000000
85969.045050
89474.282615
88313.632141
91001.256430
83774.968587
87950.716350
88417.056705
90658.554272
0.000000
0.000000
0.000000
0.000000
0.000000
0.000000
0.000000
0.000000
0.000000
78797.614471
79788.590692
80152.721030
81425.010865
82432.589414
80357.379666
85992.867322
81813.265612
0.000000
0.000000
0.000000
0.000000
0.000000
0.000000
0.000000
0.000000
0.000000
70469.099990
72667.791890
70967.225602
72606.326001
0.000000
77085.859553
76095.712534
75324.307719
0.000000
0.000000
0.000000
0.000000
0.000000
0.000000
0.000000
0.000000
0.000000
63864.968705
63803.436389
63126.586399
62125.041609
0.000000
65851.913793
68367.862751
62971.858030
62245.109422
0.000000
0.000000
0.000000
0.000000
0.000000
0.000000
0.000000
0.000000
56050.729719
57202.503055
54837.620145
54286.010016
0.000000
57084.991174
56218.590863
56444.929709
53037.838026
0.000000
0.000000
0.000000
0.000000
0.000000
0.000000
0.000000
47401.990366
49604.878485
49129.372650
47427.407307
47661.369559
0.000000
48518.490527
50252.726839
48492.638557
49851.574420
45888.661027
0.000000
0.000000
0.000000
0.000000
0.000000
39673.625707
41466.296323
42524.013647
42848.453801
41905.049707
0.000000
0.000000
0.000000
45474.827871
44611.155763
42822.927827
40817.778004
37105.678536
36185.045541
33967.276274
34012.144191
33939.017810
35472.595763
36125.926864
36026.434813
36741.317716
37439.150669
0.000000
0.000000
0.000000
0.000000
39476.329314
38410.267765
34521.396994
33836.214570
31716.239077
32024.421708
30495.482424
30965.532624
31070.681263
31476.791501
30924.209439
32321.396003
0.000000
0.000000
0.000000
0.000000
0.000000
0.000000
31894.003060
29021.220594
28352.021093
28609.344766
28346.432135
27887.815745
27462.732594
27108.365032
27670.077089
28067.647393
0.000000
0.000000
0.000000
0.000000
0.000000
0.000000
0.000000
0.000000
23973.212943
24819.189048
25286.882288
25657.849428
24907.198517
24402.744880
24372.385253
0.000000
0.000000
0.000000
0.000000
0.000000
128027.949000
135322.799818
144845.125199
153972.063056
0.000000
0.000000
0.000000
0.000000
0.000000
0.000000
0.000000
0.000000
0.000000
154005.140457
150939.743811
146377.216955
146102.170845
126921.472411
136185.568849
145100.999850
150775.200267
0.000000
0.000000
0.000000
0.000000
0.000000
0.000000
0.000000
0.000000
0.000000
149116.631265
143502.628872
139709.245592
138978.648979
129017.733067
133320.219112
142352.624011
149321.761083
0.000000
0.000000
0.000000
0.000000
0.000000
0.000000
0.000000
0.000000
0.000000
143661.330390
137274.369578
131123.874596
134882.544143
122322.452148
128784.587755
134588.883752
141680.662966
0.000000
0.000000
0.000000
0.000000
0.000000
0.000000
0.000000
0.000000
0.000000
131241.830859
128182.290185
124686.582885
121580.265590
121729.705123
125530.756062
131682.503808
135412.162595
0.000000
0.000000
0.000000
0.000000
0.000000
0.000000
0.000000
0.000000
0.000000
125843.608999
124657.855760
122205.542044
119679.337296
120583.558145
124238.693194
127487.572596
131579.216330
0.000000
0.000000
0.000000
0.000000
0.000000
0.000000
0.000000
0.000000
0.000000
122486.127108
121861.715425
120387.702276
119292.075263
119413.684359
121003.771238
124936.545531
126296.076401
0.000000
0.000000
0.000000
0.000000
0.000000
0.000000
0.000000
0.000000
0.000000
118129.079492
118700.244647
117936.314357
117486.982132
115182.477401
117186.860019
119030.244785
121746.999530
0.000000
0.000000
0.000000
0.000000
0.000000
0.000000
0.000000
0.000000
0.000000
113009.032892
113705.135485
113639.156041
114117.659478
109639.619141
110569.881048
113686.921182
114694.585395
0.000000
0.000000
0.000000
0.000000
0.000000
0.000000
0.000000
0.000000
0.000000
106141.991999
107551.832746
107778.661485
108240.970500
101708.272683
103884.563261
105631.038524
108135.665023
0.000000
0.000000
0.000000
0.000000
0.000000
0.000000
0.000000
0.000000
0.000000
98654.233137
99750.162551
100220.657512
101149.255810
94232.182356
95786.059908
99004.728126
100123.246745
0.000000
0.000000
0.000000
0.000000
0.000000
0.000000
0.000000
0.000000
0.000000
89913.948032
91365.175837
91891.047877
92625.885535
86553.316015
90519.807647
91845.647646
93865.855998
0.000000
0.000000
0.000000
0.000000
0.000000
0.000000
0.000000
0.000000
0.000000
81631.856724
82314.957190
82735.739642
83560.900322
83495.264405
84113.269353
87156.005621
86299.187608
0.000000
0.000000
0.000000
0.000000
0.000000
0.000000
0.000000
0.000000
0.000000
73500.253326
73837.986812
73656.305229
73794.001493
0.000000
79687.460994
79219.043284
77855.473501
0.000000
0.000000
0.000000
0.000000
0.000000
0.000000
0.000000
0.000000
0.000000
65702.644180
65542.799836
64690.463349
64057.037207
0.000000
69043.304696
68979.740075
65941.609355
62300.007445
0.000000
0.000000
0.000000
0.000000
0.000000
0.000000
0.000000
0.000000
57775.703822
57478.266784
56621.421342
55058.799282
0.000000
58996.248604
58024.685127
57657.725730
54468.677409
0.000000
0.000000
0.000000
0.000000
0.000000
0.000000
0.000000
48024.429127
50160.975010
50195.994823
48708.895076
48876.675067
0.000000
50673.775409
51068.879047
50406.738957
50411.003365
47392.339697
0.000000
0.000000
0.000000
0.000000
0.000000
39856.480464
41472.135190
43165.036811
43359.775147
43791.465281
0.000000
0.000000
0.000000
46766.559886
46121.753429
44204.400038
41633.929549
38293.464501
36425.323187
34740.611533
34352.018108
34451.588008
35614.544612
36738.786617
36601.136938
37503.462594
38685.484135
0.000000
0.000000
0.000000
0.000000
41050.410929
38889.219273
35403.330832
33727.948707
32162.573218
31836.478997
30836.882523
31004.504243
31447.952905
31937.272169
31802.995689
33135.009447
0.000000
0.000000
0.000000
0.000000
0.000000
0.000000
32274.514191
29261.811519
28780.932336
28816.297100
28644.384682
28033.252858
27684.664129
27701.963569
28243.950071
28610.258737
0.000000
0.000000
0.000000
0.000000
0.000000
0.000000
0.000000
0.000000
24555.287868
25104.982083
25699.069319
25993.638272
25130.537433
24758.313991
24872.212844
0.000000
0.000000
0.000000
0.000000
0.000000
127186.642700
134692.930769
140347.653623
148506.070837
0.000000
0.000000
0.000000
0.000000
0.000000
0.000000
0.000000
0.000000
0.000000
147403.929173
146724.264483
145498.146432
138983.005534
124045.990322
131338.018327
136889.809121
143348.360337
0.000000
0.000000
0.000000
0.000000
0.000000
0.000000
0.000000
0.000000
0.000000
138631.845518
137948.376853
136097.972524
131931.336751
121047.512910
126959.475125
133386.684880
141004.699737
0.000000
0.000000
0.000000
0.000000
0.000000
0.000000
0.000000
0.000000
0.000000
135081.071199
128351.093694
126389.790051
125573.131496
120518.472358
123460.086703
131419.899689
136315.681932
0.000000
0.000000
0.000000
0.000000
0.000000
0.000000
0.000000
0.000000
0.000000
128279.408381
125014.323852
119225.928976
120050.503211
118999.880981
123796.404147
127142.018621
133392.558322
0.000000
0.000000
0.000000
0.000000
0.000000
0.000000
0.000000
0.000000
0.000000
124268.363508
122191.353890
119713.665759
117386.731615
119419.961194
120875.374737
125637.098917
126981.479363
0.000000
0.000000
0.000000
0.000000
0.000000
0.000000
0.000000
0.000000
0.000000
120734.481575
119925.967747
118579.840004
117695.064788
117095.319213
119604.864251
120803.487896
124858.786588
0.000000
0.000000
0.000000
0.000000
0.000000
0.000000
0.000000
0.000000
0.000000
117156.835335
116692.116228
116371.911551
116396.118481
114258.185042
114292.699788
117482.674432
117439.581036
0.000000
0.000000
0.000000
0.000000
0.000000
0.000000
0.000000
0.000000
0.000000
111564.295108
112259.269439
112140.847420
112778.126768
107814.631416
109657.045596
110095.276200
113261.609213
0.000000
0.000000
0.000000
0.000000
0.000000
0.000000
0.000000
0.000000
0.000000
105369.506126
105904.001500
106524.091418
107510.909088
101117.664490
101114.518762
104270.303709
104216.934166
0.000000
0.000000
0.000000
0.000000
0.000000
0.000000
0.000000
0.000000
0.000000
97399.340775
98500.688565
99067.806964
100309.171398
91695.193355
95137.458639
95776.674936
98849.538629
0.000000
0.000000
0.000000
0.000000
0.000000
0.000000
0.000000
0.000000
0.000000
89297.207045
89994.402901
90876.110013
92081.405157
87223.963065
87424.404988
90696.738927
90621.120145
0.000000
0.000000
0.000000
0.000000
0.000000
0.000000
0.000000
0.000000
0.000000
80742.782066
81577.232592
81782.382133
82801.063930
82268.568448
83960.812525
83109.358766
84906.544729
0.000000
0.000000
0.000000
0.000000
0.000000
0.000000
0.000000
0.000000
0.000000
72900.095842
72901.315160
72954.164286
73300.020831
0.000000
76226.211222
77540.318771
73910.601475
0.000000
0.000000
0.000000
0.000000
0.000000
0.000000
0.000000
0.000000
0.000000
64813.818480
64663.729520
64012.055204
62919.679862
0.000000
67878.425747
66011.195408
65887.494709
61757.862050
0.000000
0.000000
0.000000
0.000000
0.000000
0.000000
0.000000
0.000000
56543.430229
56653.243240
55724.611977
55677.552688
0.000000
58630.107395
58567.158787
55947.064412
54855.654242
0.000000
0.000000
0.000000
0.000000
0.000000
0.000000
0.000000
47244.199181
49373.351969
48675.207876
48601.684661
48738.674726
0.000000
52062.819339
50772.080192
49939.851805
48626.769543
47063.275589
0.000000
0.000000
0.000000
0.000000
0.000000
39453.239790
41257.238247
42185.897824
42906.391854
42473.216910
0.000000
0.000000
0.000000
45721.525611
45446.457414
44196.192261
40354.201949
37882.187518
35338.174372
34815.448128
33525.063596
33895.288622
35009.450654
36067.212869
36281.414266
37164.284189
38425.743971
0.000000
0.000000
0.000000
0.000000
41506.823628
38214.316162
35187.100934
32577.498523
32078.552207
31192.265188
30791.456422
30374.724924
30999.423397
31854.277060
32103.577063
32514.871582
0.000000
0.000000
0.000000
0.000000
0.000000
0.000000
32064.889847
29531.266799
28786.668260
28306.541110
28543.101372
27780.799227
27859.910782
27457.868076
28062.809358
29150.355424
0.000000
0.000000
0.000000
0.000000
0.000000
0.000000
0.000000
0.000000
25093.757195
24946.418923
25395.922515
25869.312098
25063.325171
24961.020649
25169.686399
0.000000
0.000000
0.000000
0.000000
0.000000
116458.231097
121756.370999
126703.181961
131831.806629
0.000000
0.000000
0.000000
0.000000
0.000000
0.000000
0.000000
0.000000
0.000000
127587.208816
134250.393961
131627.724080
125648.121561
113436.849468
117040.636597
122017.738136
130030.056936
0.000000
0.000000
0.000000
0.000000
0.000000
0.000000
0.000000
0.000000
0.000000
124154.987981
121869.410052
120381.491862
119742.879519
110438.988645
113815.354362
119574.194835
128191.177109
0.000000
0.000000
0.000000
0.000000
0.000000
0.000000
0.000000
0.000000
0.000000
121469.284562
113809.146418
112071.815254
115299.213125
113234.462182
117276.669833
121385.752690
130774.969003
0.000000
0.000000
0.000000
0.000000
0.000000
0.000000
0.000000
0.000000
0.000000
123421.407859
115587.195162
114672.083223
112533.889507
116225.370775
117810.478263
122168.009190
127078.732736
0.000000
0.000000
0.000000
0.000000
0.000000
0.000000
0.000000
0.000000
0.000000
120439.105030
117279.286167
115016.839912
113891.517123
114852.304057
116759.807363
118209.996549
123581.346058
0.000000
0.000000
0.000000
0.000000
0.000000
0.000000
0.000000
0.000000
0.000000
117455.843355
115472.148253
115023.379172
115223.328766
115005.125810
114511.955763
116741.755941
119691.164967
0.000000
0.000000
0.000000
0.000000
0.000000
0.000000
0.000000
0.000000
0.000000
114203.901028
112813.183737
112835.850292
114354.374391
110339.500958
110981.716911
111126.466454
115008.407494
0.000000
0.000000
0.000000
0.000000
0.000000
0.000000
0.000000
0.000000
0.000000
108972.212887
108289.246206
109247.758966
110725.452393
106244.439940
105200.060270
106927.675263
109076.716265
0.000000
0.000000
0.000000
0.000000
0.000000
0.000000
0.000000
0.000000
0.000000
103162.107014
102802.297353
103708.765815
105929.850624
97629.584154
98565.105525
98649.487738
102123.740968
0.000000
0.000000
0.000000
0.000000
0.000000
0.000000
0.000000
0.000000
0.000000
95212.567257
95386.187711
96978.739871
98874.653993
89844.325375
90389.523619
93540.377576
95463.191935
0.000000
0.000000
0.000000
0.000000
0.000000
0.000000
0.000000
0.000000
0.000000
87503.923386
87657.031022
88605.356869
90826.358833
83355.527596
85233.886652
85034.624295
89205.826471
0.000000
0.000000
0.000000
0.000000
0.000000
0.000000
0.000000
0.000000
0.000000
79020.766094
79233.952277
80325.675546
81681.155014
80498.504989
80665.285215
81205.594247
80476.341376
0.000000
0.000000
0.000000
0.000000
0.000000
0.000000
0.000000
0.000000
0.000000
71621.524976
71140.617112
71292.721984
72218.535766
0.000000
74724.807272
72041.062086
72810.313460
0.000000
0.000000
0.000000
0.000000
0.000000
0.000000
0.000000
0.000000
0.000000
63358.306626
63371.376036
62505.131921
61783.480374
0.000000
64805.156570
64673.996650
64100.336303
60801.507421
0.000000
0.000000
0.000000
0.000000
0.000000
0.000000
0.000000
0.000000
55762.259749
54608.802670
54815.946786
54362.600421
0.000000
58468.652715
55916.896025
55042.219938
52861.769753
0.000000
0.000000
0.000000
0.000000
0.000000
0.000000
0.000000
46281.833821
48063.749025
47320.927951
47356.191945
47262.765443
0.000000
50721.184562
50614.639942
48371.969088
47895.450193
44314.271478
0.000000
0.000000
0.000000
0.000000
0.000000
38643.815277
40617.144924
41504.203278
41387.456957
41768.278910
0.000000
0.000000
0.000000
44680.431010
45070.802350
43581.511201
40008.294846
37128.575482
34494.432954
34210.221756
32710.440878
33336.208018
34271.129457
35635.689034
35412.492506
36596.280160
36235.335922
0.000000
0.000000
0.000000
0.000000
40877.345656
38029.193263
34149.700085
32143.345775
30548.660950
31236.895095
29881.854178
29970.164582
30199.435333
31060.095336
31394.397957
31386.371078
0.000000
0.000000
0.000000
0.000000
0.000000
0.000000
31296.653373
29339.950232
28206.871378
27846.294547
28015.170245
27404.324620
27508.236589
27223.457231
27733.440739
27927.046468
0.000000
0.000000
0.000000
0.000000
0.000000
0.000000
0.000000
0.000000
25302.185486
24783.328272
24860.212546
25843.325439
24847.828863
24989.731075
24785.898015
0.000000
0.000000
0.000000
0.000000
0.000000

VECTORS M_Vector double
-4506.202741906035 -85384.65880980338 32329.608491594863
400.1327399885189 -87112.68521963946 30773.64482923929
-119.17723315303864 -91343.91443126736 27335.94266173928
2556.060211017935 -96414.89353597004 23055.474559491704
0.0 0.0 0.0
0.0 0.0 0.0
0.0 0.0 0.0
0.0 0.0 0.0
0.0 0.0 0.0
0.0 0.0 0.0
0.0 0.0 0.0
0.0 0.0 0.0
0.0 0.0 0.0
-11630.309912575924 92983.41516213404 -25179.905606166118
-7965.5450201674175 96925.08134059794 -32834.32958361005
-7764.382649417504 96740.57371661156 -37616.949959097445
-10843.557120611178 96389.205390263 -39877.43039736819
-6137.430616536736 -87885.3286839779 21397.932892346253
-7717.410016683919 -88375.85967089001 18574.55137379986
-4190.741287518056 -91138.22560638524 15394.167923660205
-7636.80996823544 -99184.51281299598 11152.160145162135
0.0 0.0 0.0
0.0 0.0 0.0
0.0 0.0 0.0
0.0 0.0 0.0
0.0 0.0 0.0
0.0 0.0 0.0
0.0 0.0 0.0
0.0 0.0 0.0
0.0 0.0 0.0
-14387.59676398948 95592.89463140468 -10521.888021719144
-13613.0529540476 89443.19604985112 -20242.097694538785
-13083.849490728868 90338.89612984922 -25503.05517998368
-16639.64290877207 93886.9608970683 -26998.219553548737
-13488.664527003271 -89480.26956063135 11819.358892887238
-13092.419943673644 -88574.54359269132 7374.540713869563
-16833.79423806309 -92810.98555758536 3388.700411139803
-15864.974656926275 -95450.06234632696 1503.9258919485617
0.0 0.0 0.0
0.0 0.0 0.0
0.0 0.0 0.0
0.0 0.0 0.0
0.0 0.0 0.0
0.0 0.0 0.0
0.0 0.0 0.0
0.0 0.0 0.0
0.0 0.0 0.0
-19829.21552707292 91612.95345956896 -3020.587142890232
-15555.93440773849 89676.23869909301 -5968.984825070626
-18731.37291107777 87576.45173814474 -12803.637210524956
-16798.97961501973 94816.20919434642 -17899.586233067814
-16522.507371851454 -93526.42524101872 5882.741400871977
-19797.89891077853 -94259.59724122909 1021.310654555979
-21174.82163591887 -91567.73605763631 -2967.5123252698
-29576.471075680765 -96253.9273616863 -6879.906848949482
0.0 0.0 0.0
0.0 0.0 0.0
0.0 0.0 0.0
0.0 0.0 0.0
0.0 0.0 0.0
0.0 0.0 0.0
0.0 0.0 0.0
0.0 0.0 0.0
0.0 0.0 0.0
-25248.39606852327 92733.77885733 5318.784545080589
-24708.75603072732 89616.37826132502 -1386.0010113733936
-21860.227466042197 93636.9576285573 -7077.658835155726
-22736.281662310063 94175.72569205542 -13119.885612679886
-24465.96720728395 -96121.38393509408 2612.20218403526
-23693.040436257492 -93538.34580063378 -2321.699497697189
-29316.48918520938 -93242.19309180848 -7846.208447884529
-32338.720784501944 -91637.26077811312 -13589.791670436492
0.0 0.0 0.0
0.0 0.0 0.0
0.0 0.0 0.0
0.0 0.0 0.0
0.0 0.0 0.0
0.0 0.0 0.0
0.0 0.0 0.0
0.0 0.0 0.0
0.0 0.0 0.0
-30026.93079586645 91776.7057791214 9216.813682802906
-24643.65455012785 93951.83481696424 2343.6076349794007
-26224.97387740821 94414.76509290429 -3607.918820476845
-25714.433591210007 97547.90726869556 -9523.524826952642
-22341.46745171516 -94730.21401896625 1382.8156353694224
-25582.881869780213 -93518.1644063394 -4255.979042859289
-26776.86411952505 -88070.6519956713 -9617.525804224251
-36363.36707153545 -89192.4811286557 -15280.036421390952
0.0 0.0 0.0
0.0 0.0 0.0
0.0 0.0 0.0
0.0 0.0 0.0
0.0 0.0 0.0
0.0 0.0 0.0
0.0 0.0 0.0
0.0 0.0 0.0
0.0 0.0 0.0
-30760.621682809684 90541.4297220689 10223.43946550845
-30385.56230939092 89457.59202488551 3451.9184588744142
-26007.89566113867 94609.5673923158 -3205.8909593221424
-27957.916553265903 94875.9012402583 -9016.482539804285
-26275.961168822665 -95513.31219320024 262.1914948266451
-26063.911772930627 -91001.37168068436 -5001.682223543954
-31795.72656803095 -88608.38113897524 -11101.676520335135
-35376.36659827993 -84672.77934863606 -17380.22259104011
0.0 0.0 0.0
0.0 0.0 0.0
0.0 0.0 0.0
0.0 0.0 0.0
0.0 0.0 0.0
0.0 0.0 0.0
0.0 0.0 0.0
0.0 0.0 0.0
0.0 0.0 0.0
-31496.391521657657 87173.88695230478 11263.675595782172
-25738.18166817001 90404.37717281522 4216.036029497776
-26963.22917509817 92500.36463524128 -2056.8550506955016
-26208.902571242164 97343.37317497568 -7891.268920856425
-20944.7117475734 -91651.0912809007 -191.41156851970632
-25168.808502206302 -89098.19438430814 -5890.502867657655
-27180.983008802395 -82574.02862367363 -10859.5643525202
-36996.985392951006 -82252.95247884492 -16366.125084815336
0.0 0.0 0.0
0.0 0.0 0.0
0.0 0.0 0.0
0.0 0.0 0.0
0.0 0.0 0.0
0.0 0.0 0.0
0.0 0.0 0.0
0.0 0.0 0.0
0.0 0.0 0.0
-30383.050060775407 84220.28622309296 10933.408258106278
-29250.259517845603 84456.18195620814 4544.361246838918
-24443.593723115504 90439.76286367168 -1562.4285956173226
-25551.68218762812 91928.37067130572 -6971.448823262739
-23075.523559642705 -88685.90311719953 -697.4632946453382
-24106.87383809846 -83870.37426818917 -5618.382385428677
-30751.50121930029 -81177.73135522018 -11102.81086600963
-34627.74844483357 -76792.96577007353 -16635.945200510123
0.0 0.0 0.0
0.0 0.0 0.0
0.0 0.0 0.0
0.0 0.0 0.0
0.0 0.0 0.0
0.0 0.0 0.0
0.0 0.0 0.0
0.0 0.0 0.0
0.0 0.0 0.0
-28944.938611113685 79294.64647336322 10453.659692055582
-23133.61540078969 83338.75982597058 4224.345394147052
-23662.085261024567 86034.92637108278 -1195.4561112560125
-22093.193124279635 91113.54350082536 -6180.77407809657
-18488.40982292144 -81282.68001466028 -1175.039173276593
-23336.6860088487 -79285.49059567899 -6187.01074221348
-25713.465074200303 -73188.40221565469 -9930.071909004097
-35156.99712662741 -72834.95712968422 -14384.136068836437
0.0 0.0 0.0
0.0 0.0 0.0
0.0 0.0 0.0
0.0 0.0 0.0
0.0 0.0 0.0
0.0 0.0 0.0
0.0 0.0 0.0
0.0 0.0 0.0
0.0 0.0 0.0
-26527.42832547714 74479.987673179 9249.721321867157
-25386.091716677325 75244.69922983472 3932.201838831329
-20328.29123935148 81105.15675316706 -1279.6583640474182
-20556.00294415109 83005.13459781854 -5355.84603435994
-23439.88036991884 -73204.81191483975 -2091.139403889546
-24013.09810072768 -71426.21861800578 -5518.987158732386
-29671.10041969763 -70952.91446350444 -10311.012458341882
-32813.966069359885 -67426.25351073711 -14214.0916198784
0.0 0.0 0.0
0.0 0.0 0.0
0.0 0.0 0.0
0.0 0.0 0.0
0.0 0.0 0.0
0.0 0.0 0.0
0.0 0.0 0.0
0.0 0.0 0.0
0.0 0.0 0.0
-23897.891978476488 68108.56075572525 8429.047036537084
-18917.61116491349 71822.87399142615 3286.2089038441877
-18999.56917618611 74452.8855438929 -736.46525995785
-16870.5466495323 79077.83468880087 -4531.448663470639
-21304.78983053543 -66067.56788970035 -2478.8204668177927
-24947.13535722299 -66838.21559490943 -5667.627476830528
-25634.46141461724 -62399.4560153502 -8183.565538247229
-33616.31612291148 -64278.45685662364 -10949.457268279744
0.0 0.0 0.0
0.0 0.0 0.0
0.0 0.0 0.0
0.0 0.0 0.0
0.0 0.0 0.0
0.0 0.0 0.0
0.0 0.0 0.0
0.0 0.0 0.0
0.0 0.0 0.0
-21239.151543838885 62780.59585694463 7131.534998360023
-20458.437225943333 63095.641711855584 3020.365173960074
-15882.600270175211 67996.43053002702 -969.8109272351184
-15464.194845685326 69354.8287426764 -3681.7003088816055
-25480.307204186505 -63368.99181530691 -2051.3413649435665
-25146.784269837728 -62510.26118134813 -4251.071546009487
-30436.76006878531 -60863.63738093803 -6638.5745308183
-31522.73907933381 -57966.76056647965 -8935.482564298736
0.0 0.0 0.0
0.0 0.0 0.0
0.0 0.0 0.0
0.0 0.0 0.0
0.0 0.0 0.0
0.0 0.0 0.0
0.0 0.0 0.0
0.0 0.0 0.0
0.0 0.0 0.0
-21311.836765400225 57046.52075654139 5824.90701550575
-16472.052338127647 59282.37554792237 2369.2815824383374
-15570.210547357285 60237.75401702744 -157.89213361946628
-13373.488819547074 63306.8328874916 -2509.6778408459686
0.0 0.0 0.0
-24125.69717729585 -57981.73375202497 -2772.9612634507016
-25133.37969963419 -52840.53041334831 -3504.107581425472
-31288.23814428516 -53328.64375744167 -3735.1380292826457
0.0 0.0 0.0
0.0 0.0 0.0
0.0 0.0 0.0
0.0 0.0 0.0
0.0 0.0 0.0
0.0 0.0 0.0
0.0 0.0 0.0
0.0 0.0 0.0
0.0 0.0 0.0
-22063.41181183227 50893.23460968677 3675.859649865544
-20315.378400729824 50695.06527205905 1917.664051058868
-15538.79126693297 52854.47458522699 -386.9870754752868
-14254.76701028552 51476.18080266592 -1347.2761270841995
0.0 0.0 0.0
-20262.78359694857 -49738.34675141407 1055.280447467702
-25389.818498047247 -48512.74812274791 -329.4061696145532
-27402.378109113928 -46611.88103672405 -1451.2558898232703
-30832.89106906708 -41878.46929309232 -1546.4504873649605
0.0 0.0 0.0
0.0 0.0 0.0
0.0 0.0 0.0
0.0 0.0 0.0
0.0 0.0 0.0
0.0 0.0 0.0
0.0 0.0 0.0
0.0 0.0 0.0
-23960.54243242425 43897.70332302192 2281.8748414472443
-18973.11426635545 44599.19918499724 737.9216945279093
-17741.33276406578 45063.000942855295 142.90328589492864
-13790.94789589285 45909.145776609024 -582.7547557540419
0.0 0.0 0.0
-18989.7576268083 -44829.72709829363 2763.184089569625
-20258.05405507981 -40926.39156813048 1483.749017896726
-25918.284109712447 -39009.7395896167 424.2000836153976
-27465.11038133963 -34316.93831235486 -81.34806195259408
0.0 0.0 0.0
0.0 0.0 0.0
0.0 0.0 0.0
0.0 0.0 0.0
0.0 0.0 0.0
0.0 0.0 0.0
0.0 0.0 0.0
-29105.91913048768 32285.1615182618 1210.9926269503849
-24970.1562877016 37122.74762639374 1117.2940017825815
-22687.76640482804 35910.45667873768 663.0092313128956
-18153.05767752791 38257.04430383912 77.92113708200722
-15793.44839420954 37476.61377354324 4.031323509243781
0.0 0.0 0.0
-16558.119970352524 -37118.1768818494 2541.8866429837294
-22517.61641548801 -36556.67268936829 2143.000177787779
-24350.991421343933 -33483.92066095033 666.1035133458249
-29294.83317400948 -30446.90089615829 163.16678622199316
-28537.51001641344 -25019.578530883544 -29.15683989516716
0.0 0.0 0.0
0.0 0.0 0.0
0.0 0.0 0.0
0.0 0.0 0.0
0.0 0.0 0.0
-29862.631061713168 21268.37563404936 1328.4402355772102
-27879.986305126306 27487.88357500309 1041.9476730390172
-24570.17942701497 29950.97222755676 455.0062954073339
-20754.455145763764 31565.81556440538 -290.7663278473406
-18835.612733394108 31489.40762849087 66.46377941410302
0.0 0.0 0.0
0.0 0.0 0.0
0.0 0.0 0.0
-20458.3206767174 -30119.01010315697 1647.2761520472643
-24956.41725259231 -29762.209823935587 1835.44518379256
-26474.4370388455 -27573.41498463134 1275.5163858336068
-28832.887812922203 -21286.302554531456 1206.971813443958
-30570.83645558602 -14792.003203978278 657.178339660673
-31202.86651452056 -6459.440320894276 961.2926482606764
-32587.946903498207 33.841218643324844 865.6845764466956
-31060.06453076759 6512.147564452553 1039.3127746092516
-29730.001926891287 11850.725693227198 806.3811750570501
-27819.71475400753 17572.706977560694 911.3231542749536
-26228.370454508244 21018.24910114679 779.7053503235877
-22370.98745775392 23628.29860291917 -40.37331646522083
-20347.820677260053 25904.55675166868 21.06143060890251
-17179.33608830075 27022.245682973706 -301.45289728821507
0.0 0.0 0.0
0.0 0.0 0.0
0.0 0.0 0.0
0.0 0.0 0.0
-22914.672044729177 -26230.190573777567 2075.692515867306
-24897.24457381049 -22483.202842830724 1883.893056681108
-24536.334093913363 -17187.047219465054 1737.132307519135
-27366.29793981065 -11342.80025765292 1358.5291104480257
-27759.205058935026 -4357.836742633584 1419.8073699529157
-29491.36288362698 -216.76248245412253 993.8894071974184
-28193.952677843638 4441.386621358863 593.0067937732898
-26957.041519487917 9007.973588203344 517.1409533861288
-25433.83679705955 13342.52692512412 1063.860506188792
-23635.12159443474 16600.85223451087 1196.500515962876
-21176.017017928163 18987.142403601807 1199.881287006084
-17925.865193321875 21025.33588315962 -59.57193116342664
0.0 0.0 0.0
0.0 0.0 0.0
0.0 0.0 0.0
0.0 0.0 0.0
0.0 0.0 0.0
0.0 0.0 0.0
-19574.073769795992 -17285.325358222126 3217.2400632981057
-22500.21208643533 -13418.77423566213 3269.876407827044
-23981.83931006185 -8834.304780243332 2535.493282242488
-26058.990128743146 -3921.3543197588074 1874.5409335108936
-26103.456951291224 -187.8759635341308 1252.4266075509104
-25752.244148630118 3468.579013968903 1165.876104205876
-25177.29778472422 6942.687377904023 1246.802469282886
-23441.610466742644 10364.09738817066 1795.0145678758254
-22112.09889337654 12514.450810050124 1330.1275847857644
-19611.301882009928 15022.219660827715 1765.6838301305604
0.0 0.0 0.0
0.0 0.0 0.0
0.0 0.0 0.0
0.0 0.0 0.0
0.0 0.0 0.0
0.0 0.0 0.0
0.0 0.0 0.0
0.0 0.0 0.0
-19858.692790824694 -11074.015494173236 3903.4507253913616
-22494.27204837624 -5933.251735809706 2999.490054083436
-22751.24902795608 -3178.8918639515364 2654.512606107991
-24739.76705137948 -114.48751459034996 2248.0238992626246
-23286.168425747168 2514.6897389995725 2053.0816873984145
-22949.24277068861 6166.727892697115 1892.6849487549543
-21102.967091734125 7833.785287514001 1898.4575167511257
0.0 0.0 0.0
0.0 0.0 0.0
0.0 0.0 0.0
0.0 0.0 0.0
0.0 0.0 0.0
-8574.408225917303 -107694.1087653594 27321.54825988963
-6256.947309962341 -114237.05055844715 25132.03143387569
-3532.465426258897 -117120.63126773787 23823.27913158097
-5647.800936102861 -123517.3335896511 20144.672126261343
0.0 0.0 0.0
0.0 0.0 0.0
0.0 0.0 0.0
0.0 0.0 0.0
0.0 0.0 0.0
0.0 0.0 0.0
0.0 0.0 0.0
0.0 0.0 0.0
0.0 0.0 0.0
-19144.095362763688 120947.56284617426 -22668.778083727644
-18106.627616569054 121597.04027989488 -28189.110808645542
-14341.60883048575 122823.18803968428 -30432.77656033101
-17490.761647870997 119567.38298532263 -34556.44126078893
-15440.63236034358 -106691.16260589664 21094.299031459366
-11423.71466383658 -109142.57284351476 19611.19175635145
-14115.034317207152 -115387.17070919444 15923.670214098664
-11946.830954945492 -118483.67386276535 13706.606100346453
0.0 0.0 0.0
0.0 0.0 0.0
0.0 0.0 0.0
0.0 0.0 0.0
0.0 0.0 0.0
0.0 0.0 0.0
0.0 0.0 0.0
0.0 0.0 0.0
0.0 0.0 0.0
-24809.92919027859 111669.50717831362 -18086.286641022463
-19543.12664913303 116208.3114780266 -20012.815465439035
-20001.513432295487 113502.98249883052 -23571.609436738345
-18192.557557128403 112340.76588594784 -28799.6813372005
-18978.52904707497 -102039.22624838098 15348.666574378056
-23225.228365998875 -107413.39835833632 11300.54281414189
-20855.298140659062 -110104.35811290173 8994.39128529918
-26561.39943459811 -116507.9640408544 4716.624294643402
0.0 0.0 0.0
0.0 0.0 0.0
0.0 0.0 0.0
0.0 0.0 0.0
0.0 0.0 0.0
0.0 0.0 0.0
0.0 0.0 0.0
0.0 0.0 0.0
0.0 0.0 0.0
-24058.303098523007 110828.79163367503 -7579.226227112004
-26310.49977317001 106451.3218268539 -13830.95446046878
-23485.34448597204 107198.42363258053 -17152.78046172428
-24928.068063802915 105428.17727298054 -23381.188771169484
-28673.13512495221 -106180.5210075636 5310.083321211525
-28179.27653636428 -104510.9806344228 1683.923364414081
-35824.84118829057 -111266.51716270416 -1871.1649418329955
-36477.980688596166 -109974.77274009924 -5191.461356986141
0.0 0.0 0.0
0.0 0.0 0.0
0.0 0.0 0.0
0.0 0.0 0.0
0.0 0.0 0.0
0.0 0.0 0.0
0.0 0.0 0.0
0.0 0.0 0.0
0.0 0.0 0.0
-34884.37494332477 103823.14015785742 2946.3312264234496
-29384.784626270608 107276.0149540409 -2342.8167485663703
-30798.697184021272 102601.17689104212 -7451.800869424823
-26344.39252370179 106890.5296335622 -11753.095631523543
-30764.673136022928 -103225.98296749352 1848.794134902818
-37572.41397583112 -105195.06748863828 -3083.2563726356534
-38106.846420414426 -104754.93548263294 -6486.446389333016
-47553.986454531165 -106535.40284730447 -11671.378347103397
0.0 0.0 0.0
0.0 0.0 0.0
0.0 0.0 0.0
0.0 0.0 0.0
0.0 0.0 0.0
0.0 0.0 0.0
0.0 0.0 0.0
0.0 0.0 0.0
0.0 0.0 0.0
-34916.215026733844 104698.29899981224 7257.089561195925
-36177.746801922855 103027.48665322908 1559.248090683854
-30697.748266552728 104929.4874888143 -3099.687854692941
-33327.04772488871 103088.60006441528 -8351.898713081639
-36179.28427577036 -105216.37480815056 193.1958991684769
-36150.3568997216 -100621.00372534718 -4418.934184048813
-45018.99979888325 -104064.16752676692 -9047.275979506454
-45722.71491154744 -98754.92686556531 -13488.975218285968
0.0 0.0 0.0
0.0 0.0 0.0
0.0 0.0 0.0
0.0 0.0 0.0
0.0 0.0 0.0
0.0 0.0 0.0
0.0 0.0 0.0
0.0 0.0 0.0
0.0 0.0 0.0
-40125.97348421534 97849.36817465644 9084.045073668403
-33762.60122911562 104116.05157032987 2995.03338917237
-36085.94660845397 100682.11321910578 -1783.8201059559874
-31158.5713054121 105358.83938968256 -7437.434036977541
-33095.19224385432 -101610.7076881334 -719.1429143570193
-40386.5891236113 -100900.91540267954 -6118.788757197094
-41623.25055075075 -97840.16385594424 -9832.911895232412
-51155.947138277385 -96946.63487065074 -15688.68265199929
0.0 0.0 0.0
0.0 0.0 0.0
0.0 0.0 0.0
0.0 0.0 0.0
0.0 0.0 0.0
0.0 0.0 0.0
0.0 0.0 0.0
0.0 0.0 0.0
0.0 0.0 0.0
-36523.48037262519 98570.18227682104 9775.051946384743
-37518.69207906888 98207.13365611577 3994.440668279272
-31665.114535460936 101712.8905899827 -688.8181112464024
-33554.978191456044 102232.31388628537 -6217.391825111867
-34311.60271760201 -101140.09494805042 -1453.627468114283
-35484.64800332444 -95182.46411787116 -5741.895618273959
-44609.21172427863 -96726.05476797724 -10646.830799265368
-45968.63247274885 -89819.63660132607 -14688.033134721269
0.0 0.0 0.0
0.0 0.0 0.0
0.0 0.0 0.0
0.0 0.0 0.0
0.0 0.0 0.0
0.0 0.0 0.0
0.0 0.0 0.0
0.0 0.0 0.0
0.0 0.0 0.0
-39364.43326788198 90307.84605655602 9689.91131386389
-32293.293455537303 97567.14893366252 4190.903933582814
-33513.80173049779 95771.80192366445 -367.7637790734788
-27940.313670968608 101668.8091104618 -5637.253367578291
-29186.51082220553 -94177.82739411178 -1762.198072507656
-37435.27212148025 -92737.625241388 -6552.391209349741
-39424.5126582784 -88926.86781749087 -9881.19818745882
-49060.9454085413 -87293.80331406885 -15267.205673638133
0.0 0.0 0.0
0.0 0.0 0.0
0.0 0.0 0.0
0.0 0.0 0.0
0.0 0.0 0.0
0.0 0.0 0.0
0.0 0.0 0.0
0.0 0.0 0.0
0.0 0.0 0.0
-33245.5950113013 89066.39566011423 9179.834020706674
-33556.311736662945 89864.85483396552 4257.364496130324
-27209.792088173355 94128.8393344979 35.267528033964986
-28030.31873687708 95610.47056430134 -4699.843229700602
-30240.952675094155 -89772.9295385177 -2404.954433989237
-32213.218039968426 -84251.81478165598 -5593.786927232879
-41254.31503377337 -85779.57235918564 -9848.17384710335
-42863.52681298223 -79176.46706100514 -13155.702398042977
0.0 0.0 0.0
0.0 0.0 0.0
0.0 0.0 0.0
0.0 0.0 0.0
0.0 0.0 0.0
0.0 0.0 0.0
0.0 0.0 0.0
0.0 0.0 0.0
0.0 0.0 0.0
-34294.94014296176 79526.13444390972 8418.716767870112
-27124.007451273585 86659.24793083807 3730.040887634042
-27621.20214658788 85796.26133915728 174.1122184665438
-21514.396631792173 91775.95167735268 -4295.337786629026
-27861.59654045208 -78802.38337975065 -2911.678974831633
-35268.81707862024 -79875.63949202071 -6646.355496603132
-36423.030825415495 -77384.02742285834 -8546.548437188087
-45078.22702683698 -75983.68631570891 -12958.007624763775
0.0 0.0 0.0
0.0 0.0 0.0
0.0 0.0 0.0
0.0 0.0 0.0
0.0 0.0 0.0
0.0 0.0 0.0
0.0 0.0 0.0
0.0 0.0 0.0
0.0 0.0 0.0
-27289.70062478175 76314.00225847431 7347.564586057675
-27345.518163266137 77368.03858545316 3690.59198950252
-21095.621750488583 81428.34015589066 178.9612814779034
-20956.20445769624 83128.18938736453 -3341.824105558356
-31740.627804528085 -75291.7910117002 -3163.7578383376904
-31896.506122507533 -71487.38055364574 -5348.379551681795
-39269.39087410709 -74425.45643101439 -8077.483733672464
-39363.44206807279 -69176.83820198188 -10091.795020758684
0.0 0.0 0.0
0.0 0.0 0.0
0.0 0.0 0.0
0.0 0.0 0.0
0.0 0.0 0.0
0.0 0.0 0.0
0.0 0.0 0.0
0.0 0.0 0.0
0.0 0.0 0.0
-27551.460813864105 66810.35832411401 6491.585078948594
-21236.823786528188 72807.73909559123 2900.14238597888
-21078.749749911734 71760.14538112654 423.84262506814525
-15086.869555406942 76768.88360955086 -3018.662017750318
-28678.447222214945 -69287.84673481529 -2975.4359124004395
-34241.30259575172 -69808.4708321126 -4475.06076143126
-34503.9553926473 -66593.46197799519 -5680.078632192329
-41584.66423565292 -65956.95081227037 -7609.208817998298
0.0 0.0 0.0
0.0 0.0 0.0
0.0 0.0 0.0
0.0 0.0 0.0
0.0 0.0 0.0
0.0 0.0 0.0
0.0 0.0 0.0
0.0 0.0 0.0
0.0 0.0 0.0
-23310.61921243008 63287.14057566566 4896.050546499146
-22089.715760439925 63507.80801905119 2627.5030484675985
-15936.933446984538 66226.22321934513 392.4586755872339
-15423.457358700496 66598.90878240623 -1780.6341404303491
0.0 0.0 0.0
-28004.81863477222 -62131.60261876266 -1743.027050841344
-35108.55401900126 -63383.26417953991 -3282.004946150929
-33706.883921910005 -57186.58955497006 -3832.761264008655
0.0 0.0 0.0
0.0 0.0 0.0
0.0 0.0 0.0
0.0 0.0 0.0
0.0 0.0 0.0
0.0 0.0 0.0
0.0 0.0 0.0
0.0 0.0 0.0
0.0 0.0 0.0
-25829.30881634744 53499.81384819397 3773.754699889587
-19305.51922831568 58052.24370780408 1599.9260414654027
-18224.70823894434 56046.14448364233 770.1459159504293
-12703.535504187606 57811.58334179978 -949.4939732898204
0.0 0.0 0.0
-27777.44468517251 -56742.290860185545 166.89436974949115
-27752.848869123343 -53388.98083470984 -573.0384886401654
-32792.46141578306 -51870.24817687797 -1048.5742030005947
-33802.28360099108 -45850.03449569867 -1352.5240167513657
0.0 0.0 0.0
0.0 0.0 0.0
0.0 0.0 0.0
0.0 0.0 0.0
0.0 0.0 0.0
0.0 0.0 0.0
0.0 0.0 0.0
0.0 0.0 0.0
-24507.034355782747 47867.36663354249 2194.987443793605
-22510.8772674786 48247.334650855184 1620.6326343499352
-16844.407754675933 49874.69425769923 367.4375120965421
-14831.43389376026 49834.40164459071 -313.1443373451818
0.0 0.0 0.0
-21029.289098676152 -48481.63510108414 1917.216344330412
-27444.279173886647 -47854.53346626478 1717.080191908489
-27418.03935880427 -42796.46077568013 642.6831926997205
-34149.89448595839 -40239.51317312786 -207.92408475746063
0.0 0.0 0.0
0.0 0.0 0.0
0.0 0.0 0.0
0.0 0.0 0.0
0.0 0.0 0.0
0.0 0.0 0.0
0.0 0.0 0.0
-28943.73505948888 36468.22488507615 1420.6323174710506
-26915.67800422914 38884.32518936109 1285.4510167185738
-21285.022368093407 41602.23768844938 628.831915790172
-18554.98287089526 40929.37313819405 48.370661488735976
-13538.263447717847 43665.37130876078 -571.8325596638946
0.0 0.0 0.0
-22029.59432892946 -42647.128925622375 2729.0730104973245
-23446.270420583154 -39949.31614976054 1779.4415556149372
-28459.062321669597 -36979.3354701764 1466.6518098487866
-30064.26445622918 -33565.65003941601 1077.0253699688576
-34288.50720293975 -29663.978411956305 1310.0622827228678
0.0 0.0 0.0
0.0 0.0 0.0
0.0 0.0 0.0
0.0 0.0 0.0
0.0 0.0 0.0
-30831.596999694862 23942.70856279249 1138.788082415131
-28771.16891584174 28068.447371349364 963.2429000474556
-24742.455412171068 32824.93281625373 743.7120463551848
-21862.14518967065 33848.00108613727 443.2815516900847
-17074.138270199343 36057.953938389175 64.33724027041906
0.0 0.0 0.0
0.0 0.0 0.0
0.0 0.0 0.0
-24816.81637227328 -34924.90016296234 2485.5855144863685
-25868.74269367195 -32345.540888024138 1779.462671497955
-29457.48952371204 -29637.27647832845 1881.766977757512
-29732.111847677734 -23344.98799486423 1681.6491871727749
-32709.30034051149 -16025.82893033378 1247.5067939798175
-32371.99356195734 -7774.565422862708 1317.121147954712
-34171.53652445956 -406.0886209857297 1443.659964789609
-31970.327701260376 5811.029361850222 1434.5593120218705
-30869.542628210544 12412.54917448239 1334.3608731537802
-29013.336605533565 17567.330485051636 1380.4833815339125
-26579.4358453432 22881.287283696205 1293.3854955169415
-23188.883377996997 25268.769784927208 1172.6992460138465
-19228.71304245352 29872.11527303269 122.8364295502954
-17599.416222849326 30006.09642231479 20.57553301398312
0.0 0.0 0.0
0.0 0.0 0.0
0.0 0.0 0.0
0.0 0.0 0.0
-26543.53078026337 -28776.92333985389 2647.0188132599883
-25909.853565327045 -24201.6933649398 2319.5504936294524
-27649.28930540602 -18913.419822520264 2568.632940424462
-28322.986845603544 -12239.459221168234 2682.233427250324
-30988.01396616833 -6136.067388475264 2162.330109523305
-30324.992547406076 -343.4285768796149 1674.2248129475972
-29805.023163371538 4656.437373903798 1763.6005683980563
-28053.774340579952 9262.123456195655 1712.1825224682436
-26469.807742395205 14547.033253470225 1920.651098228216
-24156.19793885967 18154.86538805253 1523.663565320116
-20765.03714737417 22268.72613039635 857.3511341816844
-18652.421682840268 23876.086648124387 1041.9342534042055
0.0 0.0 0.0
0.0 0.0 0.0
0.0 0.0 0.0
0.0 0.0 0.0
0.0 0.0 0.0
0.0 0.0 0.0
-23642.982157138435 -19893.44433957375 3723.563761488468
-23953.986794921457 -14160.945054311504 3338.2820532466294
-26441.8154050354 -9457.891070290532 3176.261296619577
-26856.97366119681 -4065.2024615107234 2647.1810498328955
-27949.570129658223 -118.36963117346106 2165.6533235630386
-26595.99648189902 4121.634175236653 1908.175579559552
-25697.12356993977 8539.815688968814 2004.4024927892708
-23480.130024480837 11841.780526414275 1921.0624952185772
-21600.23812445872 15571.440656184925 1879.0920950672316
-20148.89577802925 17543.793650897493 1565.8749324266485
0.0 0.0 0.0
0.0 0.0 0.0
0.0 0.0 0.0
0.0 0.0 0.0
0.0 0.0 0.0
0.0 0.0 0.0
0.0 0.0 0.0
0.0 0.0 0.0
-21652.83699123979 -10386.7018752458 3960.090990416709
-22754.270048551127 -6190.357195056469 3256.800203170543
-24347.261315896387 -2655.549263201773 3284.8681838467337
-24829.32476014633 514.5626951944649 2494.629440988353
-24064.476636088348 4207.317096410979 2550.992374653825
-23028.40220964803 7125.2340697183145 2210.106482381275
-21509.142936217868 9887.86580871988 2472.3419984894053
0.0 0.0 0.0
0.0 0.0 0.0
0.0 0.0 0.0
0.0 0.0 0.0
0.0 0.0 0.0
-14639.325162699564 -122208.23240826288 13791.616075723172
-8414.868866621151 -128623.81034524264 12740.49450429754
-8738.84065358112 -138325.9381767758 12490.053436097893
-5583.255674969145 -142993.39166206945 12121.734910390229
0.0 0.0 0.0
0.0 0.0 0.0
0.0 0.0 0.0
0.0 0.0 0.0
0.0 0.0 0.0
0.0 0.0 0.0
0.0 0.0 0.0
0.0 0.0 0.0
0.0 0.0 0.0
-22562.448827200187 141567.24755880897 -17045.13925520795
-23056.71732327179 143171.24929966708 -13600.10705400813
-23449.201429364468 139222.7896171544 -14986.024334084492
-21895.585141939813 136924.0792373011 -18027.856731852957
-18866.737461397675 -119293.0300131556 12542.724215123088
-20034.408459148894 -127711.61575994387 11213.217410432935
-17180.89678428116 -134146.66359008744 11724.776635254482
-19081.66657954507 -139808.97023865592 8480.4021713666
0.0 0.0 0.0
0.0 0.0 0.0
0.0 0.0 0.0
0.0 0.0 0.0
0.0 0.0 0.0
0.0 0.0 0.0
0.0 0.0 0.0
0.0 0.0 0.0
0.0 0.0 0.0
-25892.25534989988 136188.74137383015 -12960.716552942347
-27296.348559006357 132166.85288288537 -13922.260929874545
-26989.941557114915 129578.75686564928 -12626.79651386749
-27128.86550470936 128717.68758196283 -18817.273363260767
-28860.648591335463 -119501.22507712083 10128.127202305546
-28321.62126843153 -121604.13977359411 8478.509596575243
-33048.98239500304 -131621.82960937408 6378.235797787527
-31058.60567564101 -133995.22111835625 4428.313376546186
0.0 0.0 0.0
0.0 0.0 0.0
0.0 0.0 0.0
0.0 0.0 0.0
0.0 0.0 0.0
0.0 0.0 0.0
0.0 0.0 0.0
0.0 0.0 0.0
0.0 0.0 0.0
-34986.03451316672 128090.23502109808 -6102.868999366338
-31351.94379964291 127139.98950289084 -8501.08390987717
-33914.81437376064 119816.10130696627 -11660.075907567429
-28453.539916398284 125477.23340779627 -13595.016335474387
-33502.48131449922 -112424.48303432316 3659.3753188863375
-40188.180495062574 -116424.7363203029 1576.1851278561492
-41490.8616944664 -120765.7681261332 -525.6413364464587
-48808.44528923933 -125343.50785390058 -2954.278415383694
0.0 0.0 0.0
0.0 0.0 0.0
0.0 0.0 0.0
0.0 0.0 0.0
0.0 0.0 0.0
0.0 0.0 0.0
0.0 0.0 0.0
0.0 0.0 0.0
0.0 0.0 0.0
-40058.07557183304 117985.92945840162 1105.1201163900407
-40056.608548804805 115431.14194655676 -1717.192865658047
-35891.63001571004 114070.39816614753 -4589.612696398906
-35741.16833950318 112285.40877460533 -7795.176947229737
-41775.54804823022 -111363.22366540536 1154.8398535572271
-44573.54830734916 -110273.14307625404 -1211.9702136338435
-52729.42935438965 -116488.0529075392 -3746.462127514832
-54558.70075791344 -114528.67727058251 -6639.208022566289
0.0 0.0 0.0
0.0 0.0 0.0
0.0 0.0 0.0
0.0 0.0 0.0
0.0 0.0 0.0
0.0 0.0 0.0
0.0 0.0 0.0
0.0 0.0 0.0
0.0 0.0 0.0
-44602.324115962176 109855.61282816889 4466.156830403097
-41021.432612379656 114063.27860428208 814.5823898416493
-41789.79657020517 109181.62322524136 -2173.172402610733
-36870.32494223416 110715.72849340868 -5883.889107542755
-42021.53194426098 -108660.96297246708 84.9556492020854
-49523.16696400685 -108907.9259982476 -2576.9741457957844
-52470.68217421348 -109487.92815252338 -5158.334671946622
-60788.08271904977 -109696.86720327155 -8554.877817878083
0.0 0.0 0.0
0.0 0.0 0.0
0.0 0.0 0.0
0.0 0.0 0.0
0.0 0.0 0.0
0.0 0.0 0.0
0.0 0.0 0.0
0.0 0.0 0.0
0.0 0.0 0.0
-44571.49974070631 108368.79166505332 5668.998078971071
-45427.45176174916 107923.67301210565 2187.63684490672
-41093.51823994765 108517.43264958504 -1055.7015344098843
-40839.13544929475 108625.6374690714 -4861.159738221966
-44095.85403382038 -108601.16641863968 -927.5920823156088
-47497.6391171092 -104613.96662823338 -3230.713156795721
-56707.843067826456 -107566.89261258296 -6313.5636999818125
-59357.34673452055 -102336.74404851568 -9347.128330199426
0.0 0.0 0.0
0.0 0.0 0.0
0.0 0.0 0.0
0.0 0.0 0.0
0.0 0.0 0.0
0.0 0.0 0.0
0.0 0.0 0.0
0.0 0.0 0.0
0.0 0.0 0.0
-46761.049361175945 101899.55223536235 6409.13314374384
-42482.73371568485 107543.68733530935 2740.091068359477
-42390.431576363546 104765.27822321604 -426.3621614235054
-36759.66232857802 108808.40620350267 -4135.059186799855
-39560.35776529315 -104063.41538592524 -1213.2491765055256
-48030.6376640424 -102395.76119644016 -3692.699700529595
-52045.01682174792 -100793.35036020436 -6192.231292060339
-60823.65107274318 -98869.85447034864 -9912.873741563324
0.0 0.0 0.0
0.0 0.0 0.0
0.0 0.0 0.0
0.0 0.0 0.0
0.0 0.0 0.0
0.0 0.0 0.0
0.0 0.0 0.0
0.0 0.0 0.0
0.0 0.0 0.0
-43533.24108411815 99172.11745422684 6219.107297620454
-43267.07739261754 100553.98819480758 3055.020281736077
-37884.98505248007 102834.53645554556 -48.66386720764098
-36385.08348776824 104698.84324825444 -3662.570390804864
-38993.12288440964 -100583.2232688862 -1948.852211619428
-43369.422048002816 -95687.84283797289 -3783.419719025018
-53287.00427509362 -97383.72534932714 -6600.473573164744
-56860.85113655186 -91344.70380194989 -9396.063159049783
0.0 0.0 0.0
0.0 0.0 0.0
0.0 0.0 0.0
0.0 0.0 0.0
0.0 0.0 0.0
0.0 0.0 0.0
0.0 0.0 0.0
0.0 0.0 0.0
0.0 0.0 0.0
-42735.24022618253 91489.76918858588 6310.200861386198
-37603.26634239365 97997.01831144682 2977.2184009259354
-36490.21244621736 96739.6091628939 293.10775342017
-29844.11861891475 101735.56184585018 -2911.5082016708498
-34087.175965695795 -92228.95031744469 -2128.2105257347835
-43050.14923767295 -90693.27851226318 -3813.316139944159
-47600.61837179423 -88838.95102437075 -5850.918136837356
-56205.41789542414 -86722.94625198109 -9256.261356472392
0.0 0.0 0.0
0.0 0.0 0.0
0.0 0.0 0.0
0.0 0.0 0.0
0.0 0.0 0.0
0.0 0.0 0.0
0.0 0.0 0.0
0.0 0.0 0.0
0.0 0.0 0.0
-37700.08158394503 86904.16166932303 5498.689179446382
-36464.80809884962 89086.09477730791 3070.668129665476
-30584.04293470843 91951.741732633 438.64387723607183
-28151.336288962608 94427.52608676728 -2521.730423398891
-35314.77746678969 -85593.80345706076 -3237.012907055413
-39225.60630337753 -82406.3472793215 -3863.711943192519
-48157.587754297805 -84276.21829367887 -5793.333512077255
-51444.92564862545 -79009.51334315927 -8237.942966109853
0.0 0.0 0.0
0.0 0.0 0.0
0.0 0.0 0.0
0.0 0.0 0.0
0.0 0.0 0.0
0.0 0.0 0.0
0.0 0.0 0.0
0.0 0.0 0.0
0.0 0.0 0.0
-35493.1091636691 78113.41393246572 5404.671358542055
-30193.80836935457 84185.14988005583 2615.6691925394243
-28445.94290528938 83604.81273841899 601.0333782649586
-21458.784104971244 88410.8524553895 -2066.5006025211933
-33393.59351078589 -76767.360178107 -3144.150991167608
-40689.52095673609 -77871.94102479736 -3956.2851000254736
-43348.56057158853 -76912.56847241947 -4789.052479442668
-50324.57948640396 -75035.72389103047 -7486.674985242648
0.0 0.0 0.0
0.0 0.0 0.0
0.0 0.0 0.0
0.0 0.0 0.0
0.0 0.0 0.0
0.0 0.0 0.0
0.0 0.0 0.0
0.0 0.0 0.0
0.0 0.0 0.0
-30022.008426293844 72735.1996903641 4163.385922863958
-28507.03899976448 74474.83308393383 2658.414796150309
-22794.483055270663 76840.99550813602 575.8820379960948
-19707.72209717332 78986.50254070779 -1664.4820347252228
-36715.10356050324 -73760.67882056147 -2548.5737218630825
-37357.72411516176 -71088.59405162772 -2849.686210171713
-44083.68450203924 -73718.47368522821 -4121.726400287915
-44832.69778852383 -68229.26385193397 -5311.044467672357
0.0 0.0 0.0
0.0 0.0 0.0
0.0 0.0 0.0
0.0 0.0 0.0
0.0 0.0 0.0
0.0 0.0 0.0
0.0 0.0 0.0
0.0 0.0 0.0
0.0 0.0 0.0
-28480.85078851649 64351.07400727304 3697.900200375222
-23246.499126015624 68824.06079097044 1859.2774757982163
-21059.63231846716 67765.55170201723 817.9234168275024
-14427.971319304252 71148.03106264175 -1212.392195837013
0.0 0.0 0.0
-35415.21002963725 -68456.2050001966 -1319.3326438860545
-36695.03054831926 -66637.98263362967 -1847.016401131296
-41996.04073430004 -62470.13040667069 -2750.764075066096
0.0 0.0 0.0
0.0 0.0 0.0
0.0 0.0 0.0
0.0 0.0 0.0
0.0 0.0 0.0
0.0 0.0 0.0
0.0 0.0 0.0
0.0 0.0 0.0
0.0 0.0 0.0
-26478.129556671505 58066.88938945893 2424.7143032146814
-23289.3994551939 59375.85755241584 1729.1350378473642
-17865.327442891026 60541.41043444599 730.4849742731237
-14747.766294336016 60348.19354869853 -346.0052749568641
0.0 0.0 0.0
-27701.1866814862 -59742.01898253253 -99.8727578952529
-34463.143085412776 -59045.99701306563 -163.28661387961762
-34978.17383164276 -52354.47895853039 -995.3854102369138
-39464.3280826135 -48131.88460278503 -584.9278388813758
0.0 0.0 0.0
0.0 0.0 0.0
0.0 0.0 0.0
0.0 0.0 0.0
0.0 0.0 0.0
0.0 0.0 0.0
0.0 0.0 0.0
0.0 0.0 0.0
-27799.15814559365 48626.6616784496 2082.9984184609098
-22010.33020088112 52785.755083219 1155.7596851620888
-19052.75299559637 51417.20477729426 654.3999912377604
-13269.652933146288 52638.5369320931 -267.626926638652
0.0 0.0 0.0
-24238.92456883931 -51677.79927942152 758.8245682127864
-27261.25621081688 -49165.35969771634 348.244435235859
-32735.063884630483 -45975.09879820589 857.8885697202726
-34216.11224508828 -40524.32535820657 221.3132523414402
0.0 0.0 0.0
0.0 0.0 0.0
0.0 0.0 0.0
0.0 0.0 0.0
0.0 0.0 0.0
0.0 0.0 0.0
0.0 0.0 0.0
-31228.95525354835 35634.49792107959 1372.4439374911124
-27266.126774169952 41426.841757064045 1009.4960586111164
-23480.081548042417 43145.812628190295 905.4723474211158
-17367.856493718788 44132.34230726882 -229.97197062100332
-14978.459508637983 45246.56549876183 -14.475843999727363
0.0 0.0 0.0
-20879.94919391827 -43784.3352187265 1001.8154334478648
-27280.449075569904 -42192.56596907508 949.2259788046672
-29485.217960176207 -38488.6316154738 884.9590144299412
-33961.71062929425 -36483.69827517502 849.3782611089545
-34151.86757465771 -30648.343084070515 313.3977907270181
0.0 0.0 0.0
0.0 0.0 0.0
0.0 0.0 0.0
0.0 0.0 0.0
0.0 0.0 0.0
-31832.38552489514 23642.653061207544 1311.7792356163152
-28797.1448782261 29825.76240984089 775.9344557200578
-26117.2593370198 33542.751167644405 1031.6712212945808
-20833.666494073652 37441.02327654339 343.6706808313437
-17564.232177926067 38046.41007328179 -40.242880182010126
0.0 0.0 0.0
0.0 0.0 0.0
0.0 0.0 0.0
-26282.665588496475 -37082.26026116229 1444.7952672881092
-29281.21269384853 -33643.36542022155 943.2735022152732
-30129.50288845129 -30411.02229647454 1089.002424738411
-32885.78591987201 -24156.683905629423 1034.7503741548028
-33531.279743635656 -15863.851151943743 907.1301044817396
-35299.52048939213 -7919.997199528581 758.2996628884864
-33950.509211393604 -600.5258380482846 882.1283743917735
-33434.32464195178 6134.323975734538 1158.4289188767198
-31600.849868877736 12317.875140871844 1230.109537178457
-29886.08059850704 19073.197962480685 1157.7374846494838
-27105.74780477941 23851.05793002059 1219.862018347298
-22575.49005937063 28065.53644306931 759.5512273432049
-19587.2818946817 31084.73086417096 -48.19293432884107
-15930.251787917883 33880.69354586966 -125.24233167581254
0.0 0.0 0.0
0.0 0.0 0.0
0.0 0.0 0.0
0.0 0.0 0.0
-26424.819129240692 -29277.16544228053 1719.6202378349192
-28505.19339744042 -25707.59630643102 1386.4022946250898
-28574.49739626681 -19278.506306125342 1887.8939582865296
-31459.795028962704 -12292.053597005046 2018.9431667472447
-31206.549988434897 -5430.045997359635 1607.998592683891
-31990.63091327656 -140.71022914367072 1464.008239698781
-30040.061254221204 5003.966708240718 1590.4355758991965
-28907.057045673744 10967.95427831172 1717.6270237813346
-26719.04538853223 15768.685053060824 1681.7905169946862
-23970.545254078843 20371.49366734305 1097.091242283779
-21093.16001073594 22611.39322475764 332.00398338900857
-17596.96739705918 27108.463305854333 388.06596973047954
0.0 0.0 0.0
0.0 0.0 0.0
0.0 0.0 0.0
0.0 0.0 0.0
0.0 0.0 0.0
0.0 0.0 0.0
-24546.81294635704 -20241.27712052028 2229.821941773315
-25205.299738528967 -14287.459846118636 1671.1077194620502
-26756.0772652296 -9135.726474259724 2118.473789010668
-28267.795611262434 -3843.851670107112 2156.651010240202
-28297.831709283677 486.5534215287719 1586.2537920153118
-27389.037571804176 4940.258022936903 1778.9712111442584
-25763.323372408267 9407.158496101329 1399.3639185657264
-23443.88043673134 13550.667009379848 1275.6756467715047
-21860.996238815213 16939.905688262726 877.2712341616667
-19750.055267062737 19935.24580495828 560.4657389115572
0.0 0.0 0.0
0.0 0.0 0.0
0.0 0.0 0.0
0.0 0.0 0.0
0.0 0.0 0.0
0.0 0.0 0.0
0.0 0.0 0.0
0.0 0.0 0.0
-21847.58054724132 -9619.502734926991 2205.2959360940145
-24018.192345314965 -5900.79517350639 2073.450692482848
-25127.49983535924 -2147.2016686049296 1850.592568261728
-25590.374291782853 906.5801803639484 1623.6050174173015
-24376.70193857961 4952.383404410344 1272.3361114714494
-22942.62525143427 8228.146709180954 1194.7828222267926
-21360.914076559468 11633.276828937518 1546.40970289682
0.0 0.0 0.0
0.0 0.0 0.0
0.0 0.0 0.0
0.0 0.0 0.0
0.0 0.0 0.0
-13842.750332087426 -127205.39031428254 4280.498043376088
-11547.7933209543 -134715.75364975235 5529.406715228732
-8805.011567315529 -144483.26767256777 5212.238290986848
-6861.927655609217 -153796.74729266716 2621.1968051020053
0.0 0.0 0.0
0.0 0.0 0.0
0.0 0.0 0.0
0.0 0.0 0.0
0.0 0.0 0.0
0.0 0.0 0.0
0.0 0.0 0.0
0.0 0.0 0.0
0.0 0.0 0.0
-22755.317574528992 152310.4851369792 -1137.9483569049182
-26097.006277447563 148457.76763996002 -7876.785669860736
-24705.65934843816 143950.09692281403 -9710.285042881802
-26237.08104196762 143674.40715293828 -3889.040138405188
-22336.077413928026 -124939.61186487143 503.181686606692
-21943.884951161184 -134400.4384911173 1223.6050612650745
-22857.778536687976 -143287.60368630954 696.238317601208
-19564.81170156736 -149499.11442997665 627.648979878817
0.0 0.0 0.0
0.0 0.0 0.0
0.0 0.0 0.0
0.0 0.0 0.0
0.0 0.0 0.0
0.0 0.0 0.0
0.0 0.0 0.0
0.0 0.0 0.0
0.0 0.0 0.0
-28702.73178794209 146313.47480368902 2071.2311788082934
-28997.92251733036 140525.69684825957 -2157.1991597057777
-31664.58228071405 136028.7425205719 -3494.10089387165
-28165.797118684783 136094.5555991849 157.1013082241957
-31188.64252662025 -125191.20052827448 85.63539569384054
-32996.41141149159 -129166.75500661772 -1211.222160402057
-35339.22435256278 -137893.00699737473 963.0192759922708
-35235.19304331552 -145100.15648015635 -1189.156632093467
0.0 0.0 0.0
0.0 0.0 0.0
0.0 0.0 0.0
0.0 0.0 0.0
0.0 0.0 0.0
0.0 0.0 0.0
0.0 0.0 0.0
0.0 0.0 0.0
0.0 0.0 0.0
-38231.92072062049 138460.22917826535 2379.7107486751797
-34989.117984487355 132740.34696902725 120.2171063618107
-35746.182520832095 126146.65864744308 1643.6046987686682
-32706.79573050653 130856.74646385804 279.5216970887892
-37848.55018638544 -116319.6746182057 -53.33818011813791
-43365.62234655237 -121261.27378388157 772.2188702183454
-46728.53385886143 -126215.87400438482 -406.08151949813015
-51529.73294365918 -131973.7431695228 1013.9009028170592
0.0 0.0 0.0
0.0 0.0 0.0
0.0 0.0 0.0
0.0 0.0 0.0
0.0 0.0 0.0
0.0 0.0 0.0
0.0 0.0 0.0
0.0 0.0 0.0
0.0 0.0 0.0
-42974.739749126 124004.91566767616 608.9343837337088
-42532.46990247809 120913.9493032906 1226.9412731385737
-39590.71879606363 118234.02928037624 -182.3643909963852
-37667.73566248499 115598.02100421127 -14.526578391432617
-44241.02096462498 -113395.446838131 1525.0605761451293
-49343.4159242287 -115425.49743801328 390.59390370010937
-55787.25125790756 -119263.5355927916 2067.240710410907
-59464.21683347903 -121657.13774442926 -39.12605962561616
0.0 0.0 0.0
0.0 0.0 0.0
0.0 0.0 0.0
0.0 0.0 0.0
0.0 0.0 0.0
0.0 0.0 0.0
0.0 0.0 0.0
0.0 0.0 0.0
0.0 0.0 0.0
-47164.42115813364 116655.20729906044 1921.955433823244
-45917.09609325346 115885.99015486435 -1280.0683484118952
-44487.10895199779 113818.53361186438 -658.0652322074527
-40629.89012072938 112557.9097180732 -1752.930191980592
-46103.56633369221 -111421.78891001851 201.5498322139807
-53002.61140318639 -112360.50554992366 1045.4011939331442
-58291.52565084491 -113380.40645637955 -250.27090522812665
-64403.36581817364 -114730.920740544 1453.4329588448863
0.0 0.0 0.0
0.0 0.0 0.0
0.0 0.0 0.0
0.0 0.0 0.0
0.0 0.0 0.0
0.0 0.0 0.0
0.0 0.0 0.0
0.0 0.0 0.0
0.0 0.0 0.0
-48634.3587470876 112412.40276181127 1001.0936541974874
-48402.21868992818 111835.08836075696 644.9214350524661
-45237.83390683518 111557.12981257714 -1320.617541925689
-42914.72555827274 111301.36903017212 -964.7812166524326
-46339.11807473439 -110048.19469921422 1307.284078216761
-52319.40701629482 -109108.111024834 111.4090162251066
-59936.30438307044 -109606.51042512592 1786.8124130246329
-64889.64569346578 -108351.4266284136 -33.819692572416294
0.0 0.0 0.0
0.0 0.0 0.0
0.0 0.0 0.0
0.0 0.0 0.0
0.0 0.0 0.0
0.0 0.0 0.0
0.0 0.0 0.0
0.0 0.0 0.0
0.0 0.0 0.0
-49301.30267484943 107320.9393075029 2465.1495626175893
-47424.35640043278 108810.92604463424 -927.8322024580486
-45047.540687923385 108993.09564939248 -445.4466609823964
-40624.06188917408 110224.18445603776 -1872.358710730808
-43264.9845671742 -106747.75841269371 -245.52907859063745
-51203.26114406184 -105407.97879033166 379.7586151953908
-57698.72421074698 -104107.68248126992 -804.2675755651014
-64696.25164119026 -103128.53909626653 1109.6585434188062
0.0 0.0 0.0
0.0 0.0 0.0
0.0 0.0 0.0
0.0 0.0 0.0
0.0 0.0 0.0
0.0 0.0 0.0
0.0 0.0 0.0
0.0 0.0 0.0
0.0 0.0 0.0
-47416.62130905034 102567.5351458253 1614.3954997214923
-45850.0419629891 104043.6814938855 1242.5090828351551
-41662.21270034522 105723.9530302978 -750.7158745927215
-38115.002329308736 107562.79996993244 -575.208549512898
-40774.11625929195 -101774.6386070648 490.3723514647857
-47613.929135032944 -99789.82183375549 -777.049313161398
-55934.53611332439 -98971.59847836102 816.3407463195704
-62186.2903008231 -96371.01352422268 -583.9261976048504
0.0 0.0 0.0
0.0 0.0 0.0
0.0 0.0 0.0
0.0 0.0 0.0
0.0 0.0 0.0
0.0 0.0 0.0
0.0 0.0 0.0
0.0 0.0 0.0
0.0 0.0 0.0
-45011.98444186791 96083.14987012462 2841.132366838651
-42017.45968115748 99004.48288230746 -205.3730779534308
-38568.94501840268 100641.21406322102 149.6111063705662
-32947.70742656595 103095.255108024 -1387.315540382808
-37161.56227778745 -94671.57808836694 -939.8528596798968
-45529.31944824836 -93373.98047944656 -619.1315832322666
-52405.110204615405 -91700.52376010202 -1623.1654953380726
-59506.20785580153 -90289.80385696284 290.85384683248446
0.0 0.0 0.0
0.0 0.0 0.0
0.0 0.0 0.0
0.0 0.0 0.0
0.0 0.0 0.0
0.0 0.0 0.0
0.0 0.0 0.0
0.0 0.0 0.0
0.0 0.0 0.0
-41113.55867180403 89657.50876934308 1965.739148598535
-38575.61726026818 91973.68551361735 1690.5191464472134
-33633.188312818405 94408.51908371349 -142.68982171235697
-29098.875823790982 96873.20524490028 -97.37654868895235
-36397.6338986436 -86918.98829701045 76.88713434393233
-42534.56618897431 -85811.47642686042 -1473.2499076540253
-50085.4077239357 -85401.17774600816 -164.20751733885075
-55961.82882635569 -83013.58765534157 -1297.1190465997254
0.0 0.0 0.0
0.0 0.0 0.0
0.0 0.0 0.0
0.0 0.0 0.0
0.0 0.0 0.0
0.0 0.0 0.0
0.0 0.0 0.0
0.0 0.0 0.0
0.0 0.0 0.0
-37370.94463181114 81729.9977507882 2852.720746314644
-33758.10981985998 84899.03815621811 372.42082541122426
-29971.77921905816 86863.20431382474 663.9779139584127
-23793.62326028531 89515.06995388799 -685.8675944978615
-35800.16838201128 -78792.48542322995 -1252.476650540833
-42017.57612243434 -80173.24135415975 -781.181158606905
-47158.62782762102 -78788.63218008059 -2009.5402774039728
-52601.18780938533 -77742.20441838284 -252.22095785881115
0.0 0.0 0.0
0.0 0.0 0.0
0.0 0.0 0.0
0.0 0.0 0.0
0.0 0.0 0.0
0.0 0.0 0.0
0.0 0.0 0.0
0.0 0.0 0.0
0.0 0.0 0.0
-32698.502114592626 74768.08340447665 2074.052956822776
-29957.415605066137 76650.06433511162 1753.015944678457
-25078.423639011187 78842.64655190113 335.21122227031344
-20292.05792802097 81058.95008481028 321.0278328158482
-37308.6629856469 -74694.85110360902 -449.51405361610654
-40087.84235604329 -73923.36564941352 -1828.383873258137
-45203.18519684552 -74517.29028524851 -121.70618098357586
-48478.81029440167 -71383.97324534734 -1297.3426748487352
0.0 0.0 0.0
0.0 0.0 0.0
0.0 0.0 0.0
0.0 0.0 0.0
0.0 0.0 0.0
0.0 0.0 0.0
0.0 0.0 0.0
0.0 0.0 0.0
0.0 0.0 0.0
-29577.67291890069 67239.36304936346 2513.276839643924
-25705.32110482196 69216.800173479 565.0991275214205
-21996.07998405351 70291.97948841468 679.2532392719539
-15989.853399255197 72040.28667112273 -276.29861951986624
0.0 0.0 0.0
-36619.35654871433 -70768.47043044498 -968.3793297464986
-40180.99100536242 -68250.6173080754 -1731.478476184065
-43746.44291885669 -64402.020795424 -321.2529406198248
0.0 0.0 0.0
0.0 0.0 0.0
0.0 0.0 0.0
0.0 0.0 0.0
0.0 0.0 0.0
0.0 0.0 0.0
0.0 0.0 0.0
0.0 0.0 0.0
0.0 0.0 0.0
-27875.8742309043 59479.56445692922 1398.0343734162066
-23854.3676424996 61034.34087791351 1279.448455187119
-19040.63429988213 61824.23348245846 272.8516876844076
-14346.831006158684 62429.73951693606 8.92859425066047
0.0 0.0 0.0
-29475.66080857437 -62423.76547971948 -1198.68537661024
-34868.98868755863 -59517.36765324004 -202.77179743012135
-37567.25568492479 -54191.65650000382 -511.3809086672301
-39656.03293596191 -48048.30885799128 -223.5963092582637
0.0 0.0 0.0
0.0 0.0 0.0
0.0 0.0 0.0
0.0 0.0 0.0
0.0 0.0 0.0
0.0 0.0 0.0
0.0 0.0 0.0
0.0 0.0 0.0
-28146.331015026 50440.91477079297 1236.980011538676
-22986.10513135801 52681.88768186301 93.98761138080134
-18775.906145929526 53416.80834376962 308.6901160025412
-13588.425536946794 53353.92192073078 -430.2156176107722
0.0 0.0 0.0
-24684.51370244347 -53583.79829987916 -93.2327164941754
-29006.09347733502 -50246.22920640375 -909.4370762699948
-33281.65468966702 -47070.387523225 -1059.9131696319023
-35803.74601880984 -41035.920898597295 -990.8510003334272
0.0 0.0 0.0
0.0 0.0 0.0
0.0 0.0 0.0
0.0 0.0 0.0
0.0 0.0 0.0
0.0 0.0 0.0
0.0 0.0 0.0
-31649.43178260728 36105.725414663066 1017.7686948926892
-27740.963612818465 41789.0356688667 488.7224852909744
-23268.41190429526 44473.65394159016 559.4718640946109
-18065.473279940616 45234.88318148233 21.869371945002623
-14301.400554367705 46737.51316294373 -64.58413074783412
0.0 0.0 0.0
-22311.652686332654 -45494.75434550591 -498.9945911148065
-27648.3638384954 -42936.56191945034 -223.68431368287335
-31091.436693245443 -39663.792105205874 -972.3643924791262
-34220.249841558085 -37003.69431954241 -985.072459502692
-35403.61543031261 -31493.40158153881 -885.1741065829209
0.0 0.0 0.0
0.0 0.0 0.0
0.0 0.0 0.0
0.0 0.0 0.0
0.0 0.0 0.0
-31932.60347240463 23837.000900742725 803.2798565046627
-29346.17438964771 29302.554358948782 316.78691777232603
-26117.609355505665 34365.6455423395 305.4355665581914
-21418.45916974167 37698.24509325054 -402.522667799527
-17371.602401715503 40197.49871179228 -284.532511128405
0.0 0.0 0.0
0.0 0.0 0.0
0.0 0.0 0.0
-27483.976083283847 -37825.83459759064 -973.8681640228152
-30045.13718780851 -34989.85441852028 -464.7133386632753
-31691.30473332625 -30797.0536214118 -1109.8086615552056
-33676.82798204601 -24468.92132064577 -726.1103124522123
-34868.4434266222 -15819.994875326647 -555.7325565831708
-35643.18553802695 -7507.79018889029 -24.093132798177404
-34737.07670819667 -494.9803015806136 24.20712189338449
-33862.51382886453 5772.401730300548 265.8637764444651
-32046.86112227652 12632.982971110492 564.2248705525386
-29941.557252881128 19276.749654631283 553.0460300276927
-27182.899059928062 24712.8446889321 322.09967986136434
-22919.348139631184 28533.963045116878 -399.57345266123446
-19519.72395606257 32022.63960469758 -201.5835970211083
-16087.068540088185 35170.85904988022 -885.201803966716
0.0 0.0 0.0
0.0 0.0 0.0
0.0 0.0 0.0
0.0 0.0 0.0
-27728.81701540826 -30262.3504289917 -662.6393055540188
-28769.12154568936 -26166.185701297527 -199.3664998509961
-29556.902384651537 -19471.50477572654 -803.6524126203446
-31523.42792435636 -11988.651487023477 -346.7728052859603
-31722.9538417026 -5296.68744062916 -174.40680123039522
-31836.155248072264 -132.72687508680733 54.74975986774928
-30410.175726350983 5112.193800970081 3.251406783291136
-28952.874637940764 11090.71163571176 80.30531265125305
-26650.793378366023 16694.300008890958 96.44395737794396
-24397.400190443408 20608.89408751816 -172.34275996376684
-21429.8619968214 23497.849926361137 -206.39391251392905
-18092.97540604763 27744.577653421915 -900.8345345612472
0.0 0.0 0.0
0.0 0.0 0.0
0.0 0.0 0.0
0.0 0.0 0.0
0.0 0.0 0.0
0.0 0.0 0.0
-25070.1927781756 -20313.10905451133 -712.2505480509368
-25242.63532091544 -14798.5641909399 -255.87755766216725
-27322.88070552827 -9031.695582029564 -480.34468884438456
-28571.980373689712 -3736.061873712322 -250.51502304210504
-28636.28884503368 680.411321028279 27.84665010074066
-27536.276638670726 5255.16266822394 -0.0277613714099341
-25867.75796588781 9863.48147341868 107.0465471933886
-23843.07069689463 14103.373224095756 40.36140514590041
-22147.65385431538 17526.93752696815 92.7646667698988
-20159.43192560295 20299.88284260084 -242.82918119282377
0.0 0.0 0.0
0.0 0.0 0.0
0.0 0.0 0.0
0.0 0.0 0.0
0.0 0.0 0.0
0.0 0.0 0.0
0.0 0.0 0.0
0.0 0.0 0.0
-22448.841729502223 -9945.050396290642 -328.0851722177909
-24425.347325708743 -5801.919536164776 -16.22045476541464
-25611.508763544043 -2119.488594593604 -23.4699010246109
-25968.55591731669 1138.8730007225308 79.38808469072883
-24631.474443074418 4981.550238994293 136.14570330460162
-23338.94188728031 8262.28851114446 49.91792690728942
-21572.1640511454 12379.556540983373 -123.6516696715374
0.0 0.0 0.0
0.0 0.0 0.0
0.0 0.0 0.0
0.0 0.0 0.0
0.0 0.0 0.0
-14808.788967359136 -126028.80705321665 -8595.443181274297
-10547.408391428762 -134057.01804037025 -7723.580102087996
-9975.98172854268 -139636.78512650568 -9975.565432132164
-7632.599959091025 -148146.81804791256 -6951.028373361616
0.0 0.0 0.0
0.0 0.0 0.0
0.0 0.0 0.0
0.0 0.0 0.0
0.0 0.0 0.0
0.0 0.0 0.0
0.0 0.0 0.0
0.0 0.0 0.0
0.0 0.0 0.0
-26286.91444800312 144699.44669856818 9949.200447622788
-24803.508392518565 144111.73299304314 12025.147535193832
-20770.743674963123 143669.24403510033 9870.924005763329
-21011.771676184268 136931.21897621307 11163.446957815002
-21052.290436590483 -121911.90885960415 -9038.543057635856
-19722.538070601116 -129563.80445818066 -8597.506866009771
-19971.82467424057 -135250.2528695253 -6878.601532271806
-19442.85471658321 -141838.428110072 -7251.766884903535
0.0 0.0 0.0
0.0 0.0 0.0
0.0 0.0 0.0
0.0 0.0 0.0
0.0 0.0 0.0
0.0 0.0 0.0
0.0 0.0 0.0
0.0 0.0 0.0
0.0 0.0 0.0
-28261.43160375689 135266.15597870556 11097.167310192544
-27683.30671990777 134831.04194308002 9164.02389745882
-27081.043274005864 133068.17339228833 9062.916224875687
-25636.79471365371 128710.54192220404 13499.21374526144
-28478.59852460995 -117276.70332908396 -9361.87288709278
-30220.81241457976 -123165.21317752148 -5978.384722468636
-31135.229377839176 -129600.383463698 -5132.816088935042
-32300.6945827272 -137241.7460945434 -1921.8757350880096
0.0 0.0 0.0
0.0 0.0 0.0
0.0 0.0 0.0
0.0 0.0 0.0
0.0 0.0 0.0
0.0 0.0 0.0
0.0 0.0 0.0
0.0 0.0 0.0
0.0 0.0 0.0
-33692.27486957533 130568.84614897837 7968.866028712718
-31779.82895833284 124142.40900018568 7260.028341367249
-32106.12010713943 121932.95894433049 8713.759458158549
-30260.873327044937 121044.79286203836 14179.17558059917
-36020.91821576194 -114993.68669598414 -1909.8822906108624
-39108.416519914106 -117097.57608947498 -1040.4038095666842
-44053.40525632496 -123764.9002288126 3568.892116727079
-47334.26423276715 -127801.8137786276 2851.1340106258167
0.0 0.0 0.0
0.0 0.0 0.0
0.0 0.0 0.0
0.0 0.0 0.0
0.0 0.0 0.0
0.0 0.0 0.0
0.0 0.0 0.0
0.0 0.0 0.0
0.0 0.0 0.0
-42644.15722253289 120958.90433412744 2454.777293157201
-38484.59153073786 118941.55811136172 650.4898421935945
-36768.46226503449 113339.46908739196 4131.231026689909
-34350.90858477491 114884.24029682783 5809.451948288765
-40567.03632054984 -111870.28870400756 -570.7390407537459
-46386.34747787332 -114698.93478770948 4243.914004442582
-50039.513036410906 -116796.89182059474 4430.134902442806
-56760.38211117521 -120259.499657437 10463.573981466434
0.0 0.0 0.0
0.0 0.0 0.0
0.0 0.0 0.0
0.0 0.0 0.0
0.0 0.0 0.0
0.0 0.0 0.0
0.0 0.0 0.0
0.0 0.0 0.0
0.0 0.0 0.0
-44959.15072051756 115782.36218780848 -3968.065226612635
-43903.70381653396 114031.47767178452 117.71476194379888
-40131.38979407464 112786.65957157416 -52.39617098089207
-39604.55801911953 110448.81899428538 3490.290274516026
-44187.42150651113 -110928.8655264693 1840.028595857415
-47931.52101065451 -110923.61264733736 3062.2979273275214
-54862.272560347 -112724.68658205411 8243.585918175155
-58777.78126180093 -112243.91766862498 8412.578534424836
0.0 0.0 0.0
0.0 0.0 0.0
0.0 0.0 0.0
0.0 0.0 0.0
0.0 0.0 0.0
0.0 0.0 0.0
0.0 0.0 0.0
0.0 0.0 0.0
0.0 0.0 0.0
-48098.2758353077 110725.7227161716 -1784.7217918794438
-44601.96310606042 111283.48515430208 -2981.3686448433423
-43178.43457212735 110438.03203358216 492.2640176390125
-39797.83270718913 110752.95975474376 1429.228090999538
-42873.83067541837 -108958.01126474958 1140.265747307083
-49369.0267205147 -108783.42614548904 5847.131703528208
-54093.2329716324 -107830.79084676974 6318.653324626746
-61332.3820060388 -108008.29547561026 12738.273593247077
0.0 0.0 0.0
0.0 0.0 0.0
0.0 0.0 0.0
0.0 0.0 0.0
0.0 0.0 0.0
0.0 0.0 0.0
0.0 0.0 0.0
0.0 0.0 0.0
0.0 0.0 0.0
-47190.29676419149 107128.47151561736 -4721.2866569456
-45333.50851290744 107518.69193748564 -1286.032586743045
-41621.04502436343 108660.36699807594 -1742.1403459485678
-39716.23711000278 109394.46581162629 1878.2324404787576
-41791.90916027872 -106321.7078719201 2015.840551394013
-46599.56870550389 -104314.25635438412 3136.4537956816257
-53936.27950601356 -104043.26545028 8249.573278732056
-58885.6667325154 -101234.82340363588 8720.319816649095
0.0 0.0 0.0
0.0 0.0 0.0
0.0 0.0 0.0
0.0 0.0 0.0
0.0 0.0 0.0
0.0 0.0 0.0
0.0 0.0 0.0
0.0 0.0 0.0
0.0 0.0 0.0
-46598.0342591864 101359.07244213426 -1246.4268338604331
-42493.28100162889 103868.11378386618 -2807.0596308389995
-40011.280699415445 104759.44199670512 355.51295316125686
-35584.23308931477 107011.61309954704 1087.609617878399
-37609.39114318968 -101039.30925407438 765.7876770671505
-45128.56516236965 -99827.30876867688 4752.754919483273
-50601.25585062384 -97648.0951171799 5033.117117637717
-58133.35373433496 -96541.99255579808 11329.120817439663
0.0 0.0 0.0
0.0 0.0 0.0
0.0 0.0 0.0
0.0 0.0 0.0
0.0 0.0 0.0
0.0 0.0 0.0
0.0 0.0 0.0
0.0 0.0 0.0
0.0 0.0 0.0
-43163.530955170056 96061.2003398024 -3447.9277703400567
-40257.30062190921 97952.9512724727 -476.0435431999233
-35588.38661848107 100396.94562373418 -1141.095830694606
-32643.628803454238 102417.84637638173 1890.453693872006
-35997.69104017778 -94483.94983590572 1315.8780486663647
-41454.7453182468 -92209.9041820224 1727.3001482570733
-49002.07045334021 -91831.79996897692 6165.536578226546
-54120.79967488236 -88814.16177549335 6644.778228333727
0.0 0.0 0.0
0.0 0.0 0.0
0.0 0.0 0.0
0.0 0.0 0.0
0.0 0.0 0.0
0.0 0.0 0.0
0.0 0.0 0.0
0.0 0.0 0.0
0.0 0.0 0.0
-40474.5457094876 88591.42045330652 -54.36148575130442
-35709.80005757533 91786.24007574872 -1575.4238834858695
-32466.93725822233 93591.46600943706 982.7777062239225
-27396.45529832175 96486.59216682486 1304.4675449106364
-34418.55062314115 -84989.69445552555 351.70128187631593
-40642.38037218035 -85947.29607290696 3520.6890921818817
-45506.66196211264 -84218.2299699787 3099.180462749261
-52223.87410119736 -83497.84364533359 8485.774422216224
0.0 0.0 0.0
0.0 0.0 0.0
0.0 0.0 0.0
0.0 0.0 0.0
0.0 0.0 0.0
0.0 0.0 0.0
0.0 0.0 0.0
0.0 0.0 0.0
0.0 0.0 0.0
-35602.340298977375 81874.13215335619 -1758.1340883439989
-32568.590516536748 83893.52865457906 394.1005269580355
-27599.20782577363 86583.44573429484 -240.88009633562027
-23896.557723628557 88901.18901200047 2125.628599539946
-35354.334381138564 -79727.35872700541 1280.251368791896
-39049.56759723458 -78215.27603698097 726.9473685681353
-44565.18960277377 -78881.25308643574 4194.071902651185
-48475.94328782993 -76456.11687772584 4090.541609535593
0.0 0.0 0.0
0.0 0.0 0.0
0.0 0.0 0.0
0.0 0.0 0.0
0.0 0.0 0.0
0.0 0.0 0.0
0.0 0.0 0.0
0.0 0.0 0.0
0.0 0.0 0.0
-32350.4757827009 73972.01621128278 992.1643481221496
-27776.937383971013 76700.80781905042 -522.2134483941379
-24476.414377772657 78021.80386628401 1364.2902971042836
-19023.092763963632 80572.49236013027 1487.1464420424006
-34157.26704835769 -74839.31140394624 -689.8774660038217
-38424.5242429961 -74632.11068668091 1738.3989771561105
-41505.47665754556 -71995.2096273825 1072.7127683284375
-46275.74661778709 -71028.84020819083 4751.891360950245
0.0 0.0 0.0
0.0 0.0 0.0
0.0 0.0 0.0
0.0 0.0 0.0
0.0 0.0 0.0
0.0 0.0 0.0
0.0 0.0 0.0
0.0 0.0 0.0
0.0 0.0 0.0
-29014.91350356921 66874.6732553528 -580.383580417062
-25337.16220812768 68350.02941393285 950.4959120697844
-20341.393974346043 70060.78250799816 156.62746682875806
-16610.24679390739 71379.26811981385 1411.679103297911
0.0 0.0 0.0
-34089.89750021327 -68167.5604427946 -1223.874593871821
-38398.77060748467 -67353.05172381132 1265.651759784041
-40354.56543020355 -61919.04346116047 564.0178938326458
0.0 0.0 0.0
0.0 0.0 0.0
0.0 0.0 0.0
0.0 0.0 0.0
0.0 0.0 0.0
0.0 0.0 0.0
0.0 0.0 0.0
0.0 0.0 0.0
0.0 0.0 0.0
-28122.674806901094 58379.711092033176 1324.9756630632562
-22856.587448283728 60489.4562332841 3.193311029006949
-19259.08219995198 61042.22318789571 691.3411059402061
-14103.301878975595 61318.257285922926 233.052614737125
0.0 0.0 0.0
-30105.04481575005 -60834.74101745399 -548.8568862076378
-32776.56147618993 -57288.62699348717 -1090.0248769155598
-35697.154372394965 -55378.683941477495 276.57493754616456
-37987.56856425394 -48683.63504086363 -939.0627139225408
0.0 0.0 0.0
0.0 0.0 0.0
0.0 0.0 0.0
0.0 0.0 0.0
0.0 0.0 0.0
0.0 0.0 0.0
0.0 0.0 0.0
0.0 0.0 0.0
-27022.97534130507 49668.0794001297 -13.945256002197953
-23085.030089561787 51735.71308345344 295.5455018390043
-18259.78120532225 52646.65174203183 -377.92942844971793
-14338.609383189318 53796.015126548 618.7978750507747
0.0 0.0 0.0
-25157.706255968023 -52901.8303711949 -2444.5147794250693
-29597.055451022938 -50515.49315201903 -1520.3120025207008
-31258.52723549224 -46335.2359909355 -2454.464727382196
-35540.92724746515 -41770.831065084094 -1087.641850034075
0.0 0.0 0.0
0.0 0.0 0.0
0.0 0.0 0.0
0.0 0.0 0.0
0.0 0.0 0.0
0.0 0.0 0.0
0.0 0.0 0.0
-30772.088169936625 35847.94175046126 -134.23176941666017
-27463.257809748076 41021.82252688025 841.0895885481785
-22622.429213699237 43096.50272632436 -439.3301209119476
-18179.90940731368 45070.79793420746 487.6672721828535
-13937.35306240202 46701.15139885649 -459.4145442839512
0.0 0.0 0.0
-23631.57976852445 -46373.78097088864 -1248.2121596598631
-26742.47881752261 -43095.27323877668 -2332.676190047523
-30548.39126690425 -39450.25142032539 -2112.4043611034763
-32958.612875543164 -35662.759172552585 -2541.684818951925
-35287.95398745612 -31062.83731442484 -2193.707025914168
0.0 0.0 0.0
0.0 0.0 0.0
0.0 0.0 0.0
0.0 0.0 0.0
0.0 0.0 0.0
-31816.01844733139 23328.920096797978 246.14467285225464
-29344.75698173473 28994.92207025032 582.6144593864495
-25867.11344816258 33320.10702947374 -559.3609274307798
-22065.0213870541 36798.00662702118 1.181439853549741
-17539.648914494388 38678.3010234336 -569.1226506612547
0.0 0.0 0.0
0.0 0.0 0.0
0.0 0.0 0.0
-26752.45582990598 -37013.72336206082 -2179.0580816108154
-29201.80759085393 -34731.116922509354 -2526.7453856169777
-31182.74435944484 -31220.61015918021 -2492.662415166134
-32206.22236656882 -24165.27983249821 -2694.4584648012383
-34186.81996357486 -16237.97743675748 -1627.7471229488883
-34388.58064860975 -7996.080904122654 -1508.2370875025629
-34800.89342465159 -644.62474741926 -773.1132871034554
-32979.317875443536 6013.860764614425 -357.71534391030985
-31642.72937290645 12147.809375406518 -242.89083540628292
-29860.276470096665 18276.11939288629 -94.78489744422542
-27420.835226773805 23423.90738007428 -512.0572521120886
-23387.73613118251 27734.714744145967 -374.72372646005095
-20017.464753623943 31303.190066680872 -771.6319046398427
-17332.870670425993 34293.35935627904 -273.6751733993716
0.0 0.0 0.0
0.0 0.0 0.0
0.0 0.0 0.0
0.0 0.0 0.0
-27783.056085633467 -30744.321122622267 -2388.497633209932
-28243.907984418373 -25596.42311744327 -2727.406297324773
-29149.371481706912 -19554.177201391216 -2465.8402872039387
-30024.00323392644 -12340.552790564969 -2750.163027181143
-31503.753166275572 -5816.891116448744 -1646.4585816030233
-31156.629286219224 -484.2591931439503 -1409.7347663868818
-30419.72961625568 4619.141899353828 -1190.5321504458338
-28620.31091574723 10125.74650848864 -985.380598597558
-26919.95560367469 15331.35819817646 -1108.917064395124
-24735.622061423303 20058.295012426886 -713.2807729018583
-21947.9689482482 23420.492523332385 -637.8473501960016
-18714.294296843032 26564.265937085387 -1154.0529466069388
0.0 0.0 0.0
0.0 0.0 0.0
0.0 0.0 0.0
0.0 0.0 0.0
0.0 0.0 0.0
0.0 0.0 0.0
-24821.739679826795 -20100.710802193164 -2828.3962595895205
-25496.19784839816 -14656.0023975996 -2690.949228971333
-27062.70496271745 -9483.14270163108 -2520.371820856109
-27929.35692894227 -4014.5777049419207 -2257.0903844386344
-28497.531996645343 214.38700422221376 -1597.9187317578692
-27364.696428319538 4570.504106364264 -1434.115517451202
-26277.56730022168 9200.325689936488 -1009.0058273891264
-23882.77921313971 13514.86726564274 -946.4349489803124
-22337.53362537176 16924.19999668731 -1458.5318158967448
-20684.891126531227 20510.107627830243 -1101.8101199777634
0.0 0.0 0.0
0.0 0.0 0.0
0.0 0.0 0.0
0.0 0.0 0.0
0.0 0.0 0.0
0.0 0.0 0.0
0.0 0.0 0.0
0.0 0.0 0.0
-22560.669956290865 -10628.755388251806 -2782.513281370485
-24068.84817415478 -6093.363780266246 -2425.960117763002
-25198.576435931547 -2408.669421416681 -2045.2231175616012
-25805.44427596316 1020.3260685158948 -1503.0930965419675
-24563.11570297789 4766.073291523232 -1451.9507522793515
-23539.079703076157 8220.72201549682 -1176.4387494982172
-22290.713363707197 11560.85803357296 -1727.3600398720805
0.0 0.0 0.0
0.0 0.0 0.0
0.0 0.0 0.0
0.0 0.0 0.0
0.0 0.0 0.0
-13498.728671636483 -114093.20565591608 -19053.722406629266
-6992.648734128368 -119846.259877563 -20312.32965367256
-5829.117363544356 -125503.7004995398 -16387.155659783486
-4268.412061650613 -131069.28563068352 -13499.9356189416
0.0 0.0 0.0
0.0 0.0 0.0
0.0 0.0 0.0
0.0 0.0 0.0
0.0 0.0 0.0
0.0 0.0 0.0
0.0 0.0 0.0
0.0 0.0 0.0
0.0 0.0 0.0
-19775.42399847272 125192.33559788656 14639.247475685866
-17153.062395394878 131425.16339706813 21362.751579891497
-15911.623546301376 128010.98503505296 26189.0376506068
-17011.331344826882 122549.73764630004 21900.384937266284
-18172.09979327341 -111145.6628502446 -13577.011306590328
-15639.345698898796 -115235.95179255994 -13213.51185664685
-12997.113848459769 -120854.0283442563 -10663.361774065796
-15225.345365354378 -129041.20136795814 -4936.893225521623
0.0 0.0 0.0
0.0 0.0 0.0
0.0 0.0 0.0
0.0 0.0 0.0
0.0 0.0 0.0
0.0 0.0 0.0
0.0 0.0 0.0
0.0 0.0 0.0
0.0 0.0 0.0
-23193.34757065514 121820.05676941652 6033.52614189904
-20017.311083064196 119093.96754316794 16373.370402788383
-19620.40411480797 116952.79871943811 20707.15328057727
-22489.028311689268 116408.36397334684 16783.73016217892
-23902.100527285333 -107552.31394614874 -7613.118156816259
-23877.808934651493 -111240.1686805445 -3067.5724905154784
-24504.904969848623 -117035.46360517148 444.92878135377896
-28276.61587855459 -125016.49256539089 2070.620620425831
0.0 0.0 0.0
0.0 0.0 0.0
0.0 0.0 0.0
0.0 0.0 0.0
0.0 0.0 0.0
0.0 0.0 0.0
0.0 0.0 0.0
0.0 0.0 0.0
0.0 0.0 0.0
-27265.751253948987 118360.0506286139 1504.76431697177
-23904.557240955863 111160.023203362 4954.108698744131
-25454.965997668016 108788.51918651978 8786.044246760073
-27091.80235780836 111410.64019935211 12149.569648487635
-30695.055372976534 -108912.74074775922 -4227.517477848697
-32820.7730645628 -112574.65630240178 1887.0349603326167
-36392.51832351624 -115746.0232920812 3597.72958395176
-43166.9505576965 -123128.2838710008 8839.265146287975
0.0 0.0 0.0
0.0 0.0 0.0
0.0 0.0 0.0
0.0 0.0 0.0
0.0 0.0 0.0
0.0 0.0 0.0
0.0 0.0 0.0
0.0 0.0 0.0
0.0 0.0 0.0
-37480.39512717736 117581.2482609405 -1647.409026403636
-32336.52391182375 110941.22079776337 2606.613629138774
-29573.44497776205 110716.98104962264 4104.647392317982
-30010.128247103134 108057.2768748494 9321.66319167877
-36385.99874660327 -110380.96319564436 662.4734423685005
-37208.50455942036 -111659.54124663994 5194.499553129591
-42453.79937394799 -113980.47246671109 11452.042802534615
-49236.337565563495 -116181.673988839 15053.438347581225
0.0 0.0 0.0
0.0 0.0 0.0
0.0 0.0 0.0
0.0 0.0 0.0
0.0 0.0 0.0
0.0 0.0 0.0
0.0 0.0 0.0
0.0 0.0 0.0
0.0 0.0 0.0
-40599.43794429441 113263.85030192725 -5344.518104387567
-35048.555005033166 111907.599747424 -1648.901028257363
-34678.08204966656 109626.79455221938 2875.761607320175
-35060.55663516252 108233.09079998342 5256.719215788332
-37551.14887615251 -108540.0037273832 174.80306780217157
-40341.14589672632 -109332.74954228882 7196.835468452316
-44133.840453486606 -109204.19261450188 10012.57840543922
-52986.11993875992 -110373.01846043816 16811.215995950126
0.0 0.0 0.0
0.0 0.0 0.0
0.0 0.0 0.0
0.0 0.0 0.0
0.0 0.0 0.0
0.0 0.0 0.0
0.0 0.0 0.0
0.0 0.0 0.0
0.0 0.0 0.0
-42616.31350913697 109258.45265979064 -6505.035243741883
-38512.54664869624 108858.30571203528 -685.6020768389502
-35578.77517775382 109375.42142467306 1243.2622856823773
-36613.0094729188 109116.32115187464 5434.288126727688
-38429.94462079806 -108343.29652551336 3323.915910967284
-40076.011101894015 -106950.69799589847 8273.42401976673
-45554.5328033981 -106487.12230060878 14625.830074673626
-53285.12023077272 -105549.68936263736 18599.301296280013
0.0 0.0 0.0
0.0 0.0 0.0
0.0 0.0 0.0
0.0 0.0 0.0
0.0 0.0 0.0
0.0 0.0 0.0
0.0 0.0 0.0
0.0 0.0 0.0
0.0 0.0 0.0
-43013.99998068263 105543.49010886208 -7273.136278843176
-37316.76705194144 106377.94778326964 -4243.29435540644
-35748.37619952602 107023.2752011594 -35.71411914790269
-35705.75092092329 108611.75722472294 2347.016411804493
-35243.32026190438 -104555.8393227561 888.9949741189778
-38947.06860869544 -103623.47705278316 7889.381392357064
-43671.88300902222 -101610.63101830204 10823.02383860708
-53081.63198947114 -100591.32580778791 17048.733437149014
0.0 0.0 0.0
0.0 0.0 0.0
0.0 0.0 0.0
0.0 0.0 0.0
0.0 0.0 0.0
0.0 0.0 0.0
0.0 0.0 0.0
0.0 0.0 0.0
0.0 0.0 0.0
-41410.41703153849 100617.90908568451 -6013.06194033711
-36696.76704795469 101876.9133512284 -1001.3281895133584
-33220.80256228168 104072.34879958724 630.3424018408984
-32997.08785144413 105596.80595774624 4542.309154301527
-33319.82414329542 -100840.9411662575 2962.249470021693
-36677.19498029074 -98308.47993213804 7568.277381083856
-42997.71969463133 -96984.11052297556 13371.841466596452
-50742.288797679896 -95133.86912294892 16507.48631783333
0.0 0.0 0.0
0.0 0.0 0.0
0.0 0.0 0.0
0.0 0.0 0.0
0.0 0.0 0.0
0.0 0.0 0.0
0.0 0.0 0.0
0.0 0.0 0.0
0.0 0.0 0.0
-39474.98484107251 95161.28009634276 -5336.3532383011325
-33208.35353207669 97242.46934456364 -3069.1615169373235
-30688.731369841666 99062.50316611388 574.7523342928536
-29343.449493778706 101756.63364236098 2383.8487394829604
-29864.548604032607 -92949.26913405884 278.93758923237505
-34718.40977499206 -92013.06881454274 6580.821919255003
-39992.27827358171 -89748.577255218 8805.225156808221
-49162.35603818685 -88464.81967818165 13649.06214020561
0.0 0.0 0.0
0.0 0.0 0.0
0.0 0.0 0.0
0.0 0.0 0.0
0.0 0.0 0.0
0.0 0.0 0.0
0.0 0.0 0.0
0.0 0.0 0.0
0.0 0.0 0.0
-36020.93855444659 88060.99611957977 -3631.241071484269
-31028.48023153377 90197.4136734531 429.86888649900567
-27017.80212257053 93126.11033633086 1562.6672780960182
-25641.82906272354 95384.6613819416 4523.292780437519
-30664.85132566919 -84417.67862072251 2307.646315298642
-33938.04389408739 -83577.71483794184 5765.478234144516
-39116.00843388743 -84285.39268053303 10756.983867343146
-46011.74367084932 -82689.78023985549 12591.294719013276
0.0 0.0 0.0
0.0 0.0 0.0
0.0 0.0 0.0
0.0 0.0 0.0
0.0 0.0 0.0
0.0 0.0 0.0
0.0 0.0 0.0
0.0 0.0 0.0
0.0 0.0 0.0
-32558.836354345 81172.08196770129 -2819.909978061556
-26841.084387634968 83437.40216746913 -1229.3071535586064
-23950.08725248337 85295.71025702498 1394.416809366593
-21656.75584424233 88167.44271838966 2629.530312625941
-30405.29576858075 -77612.15695752572 -122.72923510206935
-33971.18922173885 -78042.64679733376 4485.422776472046
-37515.80291195253 -76103.57964420608 5630.011202358211
-44697.22980414955 -76635.70490447184 9316.966133238762
0.0 0.0 0.0
0.0 0.0 0.0
0.0 0.0 0.0
0.0 0.0 0.0
0.0 0.0 0.0
0.0 0.0 0.0
0.0 0.0 0.0
0.0 0.0 0.0
0.0 0.0 0.0
-28722.597797852435 73600.05635544649 -1524.9768171326336
-24520.040105898213 75328.93693020922 1529.0806252575055
-20269.91791291 77696.09855124494 2158.9000959640907
-18274.030266402864 79499.53907129346 4206.446203574435
-31642.80169199091 -73999.6375214791 1672.1403249777427
-33392.9489444619 -73348.90093738133 3426.066384875004
-37569.19282735218 -71728.73519169062 6155.715647118805
-41247.43841072977 -68761.86204989719 6848.114576112318
0.0 0.0 0.0
0.0 0.0 0.0
0.0 0.0 0.0
0.0 0.0 0.0
0.0 0.0 0.0
0.0 0.0 0.0
0.0 0.0 0.0
0.0 0.0 0.0
0.0 0.0 0.0
-27064.578757149837 66304.61564996027 -921.607334290125
-21761.614986047825 67730.47092766147 -53.14309076948256
-18126.726440519207 68934.8480559166 1435.5207701858644
-15511.389000153433 70511.44895217408 1746.220518081683
0.0 0.0 0.0
-30801.658488573696 -68065.68512496709 1455.0479697080582
-33625.37367312252 -63692.11993062663 1600.853095984946
-37999.00091042464 -62068.58561596167 2215.4808804325794
0.0 0.0 0.0
0.0 0.0 0.0
0.0 0.0 0.0
0.0 0.0 0.0
0.0 0.0 0.0
0.0 0.0 0.0
0.0 0.0 0.0
0.0 0.0 0.0
0.0 0.0 0.0
-25778.408376287385 57875.695151109154 390.6288618205217
-21575.30947477488 59560.00269132256 1744.5346520582937
-17195.256245093835 60074.068899990816 1523.4582154500415
-14450.757885652729 60035.77059965833 2019.973294387857
0.0 0.0 0.0
-27313.342333453 -58753.99084941658 -1287.71421200227
-30317.94902586044 -57126.39966701106 349.6721398016508
-33122.537352225656 -54879.19167186901 157.97120726668587
-35673.971556426855 -49213.66181841504 1485.445544808101
0.0 0.0 0.0
0.0 0.0 0.0
0.0 0.0 0.0
0.0 0.0 0.0
0.0 0.0 0.0
0.0 0.0 0.0
0.0 0.0 0.0
0.0 0.0 0.0
-26176.319705630853 49231.6186349419 691.1046184728933
-20925.51750872576 50439.91372049807 243.2075638834115
-17919.627600982192 51801.24962143773 552.7263002307495
-14034.26290737615 52519.79784448282 51.221117468740495
0.0 0.0 0.0
-24372.736770542677 -53054.873060419886 -3119.855302183098
-26698.51196650919 -49024.88313547511 -3232.5769029125554
-30435.712916698747 -45839.13368794655 -1444.7067741405556
-32970.59737874292 -41271.33207622462 -1995.8854209632232
0.0 0.0 0.0
0.0 0.0 0.0
0.0 0.0 0.0
0.0 0.0 0.0
0.0 0.0 0.0
0.0 0.0 0.0
0.0 0.0 0.0
-29237.37811009942 35835.13872172951 1739.7401774887012
-26422.50227436355 40139.93059818963 872.5339307152278
-22231.842053411565 41756.80718227445 1176.637143764847
-17745.420220408076 43903.31751316413 455.7280361415722
-14368.123767516718 45021.33251753945 636.8948757776616
0.0 0.0 0.0
-21529.056122550744 -45771.09080120509 -3761.0573985072406
-25676.277896282776 -43523.28510911662 -2879.962347905496
-28611.968565122814 -38943.53835404593 -2145.569570301608
-32281.7492786204 -35346.55501098039 -1576.02714382051
-33364.55026462909 -29041.271600291395 -2676.935957865433
0.0 0.0 0.0
0.0 0.0 0.0
0.0 0.0 0.0
0.0 0.0 0.0
0.0 0.0 0.0
-31206.220302039004 22766.758714524283 1091.3163015588625
-29065.99972451608 28356.589997244508 907.7034245103908
-25533.11691818061 32710.821510902675 813.0106317923796
-21823.73513705978 35164.6684185617 303.76473396434136
-18322.795783804115 37534.84033944083 6.204584427360268
0.0 0.0 0.0
0.0 0.0 0.0
0.0 0.0 0.0
-25201.263391290417 -36724.57685342715 -3541.5665570109045
-28329.616583568288 -34904.73335727067 -3235.6819926591065
-29812.26574799556 -31582.21103342438 -3625.034594473242
-31152.45939978738 -24907.90924483852 -3127.9365225432616
-33325.83843609072 -16201.264374692162 -2332.0897283759487
-33449.072197565 -8236.272484599001 -1785.858206004304
-34182.595993265575 -549.3554437582598 -1260.0048994139338
-32142.967781920925 6034.678295048423 -620.6629334230246
-31136.796240286847 11908.089408023015 9.568301648907235
-29459.81335619617 17505.83944747513 418.6842387700361
-27479.937235437723 22671.72298737172 865.0776115203255
-23438.683448566942 26544.7754229816 218.26909225934008
-20716.82163102531 30160.209948244752 680.2638723227615
-17549.576950499762 31701.917708471283 18.21637097195533
0.0 0.0 0.0
0.0 0.0 0.0
0.0 0.0 0.0
0.0 0.0 0.0
-26091.562127130208 -31251.273661609568 -3680.4440137680126
-27619.55614756937 -25972.02541057416 -2972.1296271969595
-27772.56459633824 -19574.0203683953 -3427.0101082562783
-29335.97857896306 -12888.966801919518 -2543.5355703197265
-29868.198917908125 -5987.014890321587 -2295.001517450228
-31200.34090198097 -576.2865403095327 -1396.508712556351
-29544.13960296913 4441.369575511162 -585.884402951435
-28516.958500554974 9218.066187128004 -145.2540484944623
-26799.532381894787 13917.908976611434 -287.6947882340061
-24938.7422481746 18506.39607605589 -549.5103553262784
-21905.4817387449 22487.123613895183 -295.5748057320303
-19614.18344849862 24482.8575237021 -988.8299069915472
0.0 0.0 0.0
0.0 0.0 0.0
0.0 0.0 0.0
0.0 0.0 0.0
0.0 0.0 0.0
0.0 0.0 0.0
-23099.45910285925 -20592.198288500625 -4675.133275532224
-24964.3458849011 -14979.085952794672 -3638.831975430716
-26103.37334751805 -10102.181104179675 -3491.049953977178
-27352.217337280046 -4663.619949343333 -2350.1012144773035
-27944.421217512147 -612.3781914417822 -1893.1665647640143
-27142.64892430688 3490.1910456150845 -1446.4382847277104
-26302.14346237362 7991.372927179735 -1018.9643106746456
-24416.332694866745 11965.851600542694 -1333.310466030813
-22961.001451167165 15526.447225498312 -930.3677345451928
-21037.770084421263 18321.03746556949 -1292.9580350844292
0.0 0.0 0.0
0.0 0.0 0.0
0.0 0.0 0.0
0.0 0.0 0.0
0.0 0.0 0.0
0.0 0.0 0.0
0.0 0.0 0.0
0.0 0.0 0.0
-21874.34672854017 -11875.829002152965 -4547.332305273461
-23394.1364848154 -7418.788437768176 -3448.088815067272
-24397.33679091133 -3439.1590689125046 -3312.447769965773
-25708.8606825516 -165.44382268851857 -2627.656844158372
-24467.353807597632 3526.269304754117 -2515.6751854383765
-23905.57246263244 7031.346587900939 -1889.558039245929
-22701.779814387235 9764.293487687284 -1904.86386555844
0.0 0.0 0.0
0.0 0.0 0.0
0.0 0.0 0.0
0.0 0.0 0.0
0.0 0.0 0.0
